<?xml version="1.0" encoding="utf-8"?>
<!-- Generator: Adobe Illustrator 25.0.0, SVG Export Plug-In . SVG Version: 6.00 Build 0)  -->
<svg version="1.1" id="Calque_1" xmlns="http://www.w3.org/2000/svg" xmlns:xlink="http://www.w3.org/1999/xlink" x="0px" y="0px"
	 viewBox="0 0 500 500" style="enable-background:new 0 0 500 500;" xml:space="preserve">
<style type="text/css">
	.st0{fill:none;stroke:url(#SVGID_1_);stroke-width:9;stroke-miterlimit:10;}
	.st1{fill:none;stroke:url(#SVGID_2_);stroke-width:9;stroke-miterlimit:10;}
</style>
<linearGradient id="SVGID_1_" gradientUnits="userSpaceOnUse" x1="174.2871" y1="380.0404" x2="222.0221" y2="297.3609">
	<stop  offset="0" style="stop-color:#FF6D00"/>
	<stop  offset="0.2416" style="stop-color:#E76536"/>
	<stop  offset="1" style="stop-color:#9D4EDD"/>
</linearGradient>
<path class="st0" d="M336.89,368.06C312.61,385.64,282.76,396,250.5,396C169.04,396,103,329.96,103,248.5
	c0-1.42,0.02-2.83,0.06-4.24c0.02-0.6,0.04-1.21,0.07-1.81c0.14-3.59,0.42-7.13,0.82-10.65v-0.01"/>
<linearGradient id="SVGID_2_" gradientUnits="userSpaceOnUse" x1="282.3351" y1="231.0678" x2="342.8399" y2="126.2705">
	<stop  offset="0" style="stop-color:#FF6D00"/>
	<stop  offset="0.2416" style="stop-color:#E76536"/>
	<stop  offset="1" style="stop-color:#9D4EDD"/>
</linearGradient>
<path class="st1" d="M208.01,107.22c13.45-4.05,27.71-6.22,42.49-6.22c81.46,0,147.5,66.04,147.5,147.5
	c0,15.44-2.37,30.32-6.77,44.31"/>
<g>
	<g>
		<g>
			<path d="M388.04,338.12c5.56-8.96,6.36-20.27,2.13-30.43c-0.89-2.14-3.12-3.62-5.4-3.29c-3.06,0.44-4.63,3.46-3.48,6.17
				c2.98,7.03,2.67,14.81-0.78,21.21c-5.98-1.47-12.25-0.91-17.63,1.55c-38.4-11.15-70.51-27.63-95.58-49.04l-20.19-19.8
				c-0.49-0.54-0.99-1.07-1.48-1.6c-1.3-1.44-2.49-2.79-3.62-4.08l-16.7-20.29c-1.66-1.97-3.48-4.06-5.53-6.34
				c-0.03-0.03-0.06-0.07-0.09-0.1l-19.7-19.81c-3.56-3.2-7.21-6.31-10.9-9.26c-0.85-0.68-1.72-1.36-2.59-2.03l1.15-1.77
				c7.07-10.91,3.36-25.87-8.28-33.41l-25.98-16.82l0.07-0.1c4.19-6.48,9.29-12.33,15.15-17.4l14.87-12.87
				c0.73-0.63,1.53-0.46,1.94-0.31c0.41,0.16,1.13,0.57,1.29,1.54l0.98,5.72c0.38,2.2,2.21,4.05,4.48,4.27
				c3.16,0.31,5.45-2.24,4.96-5.12l-0.97-5.66c-0.55-3.21-2.38-6.21-5.2-8.08c-4.6-3.05-10.31-2.71-14.05,0.52l-14.87,12.87
				c-6.47,5.6-12.1,12.07-16.74,19.22l-16.18,24.98c-2.11-0.13-4.21,0.29-6.05,1.27l-26,13.86c0,0,0,0,0,0l-0.07,0.04
				c-0.02,0.01-0.04,0.03-0.07,0.04c-0.12,0.07-0.24,0.14-0.35,0.22c-0.04,0.03-0.08,0.05-0.11,0.08c-0.1,0.08-0.2,0.15-0.3,0.24
				c-0.04,0.03-0.07,0.06-0.11,0.1c-0.09,0.09-0.18,0.18-0.27,0.28c-0.03,0.03-0.06,0.06-0.09,0.1c-9.58,11.49-3.23,30.74,9.22,38.8
				l61.34,39.73c1.69,1.09,3.65,1.73,5.61,1.66c2.59-0.09,4.82-1.22,6.26-3.08l5.56,5.04c2.24,2.03,5.79,1.74,7.33-0.85
				c1.11-1.86,0.54-4.33-1.17-5.88l-5.93-5.38c-1.98-1.86-4.62-2.79-7.27-2.55c-2.37,0.21-4.46,1.34-5.84,3.13l-14.01-9.07
				c5.12-12.3,0.33-27.33-11.98-35.3l-35.91-23.26l19.3-10.29c0.38-0.2,0.83-0.26,1.27-0.18c0.38,0.21,0.77,0.37,1.17,0.47
				c13.34,6.21,26.23,13.55,38.31,21.84c4.89,3.35,9.65,6.87,14.15,10.46c4.12,3.29,8.2,6.78,12.11,10.36
				c6.26,5.83,12.23,11.9,17.74,18.04c8.82,9.83,16.6,20.46,25.47,30.26c4.79,5.3,9.79,10.45,14.88,15.36
				c0.01,0.01,0.02,0.02,0.03,0.03c0.01,0.01,0.01,0.01,0.02,0.02c25.37,23.98,58.33,42.53,98.07,55.24l-16.03,9.01l-34.6-10.85
				c-2.41-0.75-4.7-1.84-6.83-3.21l-6-3.89l-36.09-42.59c-4.79-5.65-12.18-8.39-19.3-7.16l-16.11,2.78l-11.19-10.15
				c-2.24-2.03-5.8-1.73-7.33,0.88c-1.09,1.85-0.53,4.3,1.17,5.84l12.92,11.72c0.89,0.81,1.85,1.55,2.87,2.21l67.47,43.7
				c0.01,0.01,0.02,0.01,0.03,0.02l6.87,4.45c2.91,1.89,6.06,3.36,9.35,4.4l36.61,11.46c0.03,0.01,0.06,0.02,0.09,0.03l16.3,5.1
				c11.2,3.5,23.22-0.54,29.24-9.83l6.29-9.72C388.18,341.97,388.48,340,388.04,338.12z M140.18,218.87
				c7.41,4.8,10.58,13.6,8.23,21.19l-38.42-24.88c-7.41-4.8-10.58-13.6-8.23-21.19L140.18,218.87z M178.63,195.24
				c-12.58-9.01-25.96-16.94-39.87-23.7l9.67-14.93l25.96,16.81c7.15,4.63,9.42,13.81,5.09,20.51L178.63,195.24z M226.7,291.6
				l7.49-1.28c3.66-0.63,7.46,0.79,9.93,3.69l16.71,19.7L226.7,291.6L226.7,291.6z M353.81,354.59l-5.82-1.83l17.95-10.09
				c3.37-1.9,7.44-2.53,11.39-1.82l-4.85,7.48C368.61,354.3,361.02,356.85,353.81,354.59z"/>
		</g>
	</g>
	<g>
		<g>
			<path d="M373.62,289.53l-19.26-15.14c-7.7-6.05-15.07-12.51-22.1-19.32c-8.84-14.92-16.8-30.46-23.69-46.23l0.62-0.17
				c2.49-0.68,3.83-3.23,2.98-5.7c-0.84-2.47-3.55-3.93-6.04-3.25l-1.28,0.35c-1.44-3.52-2.84-7.07-4.19-10.63l0.79-0.22
				c2.49-0.68,3.83-3.23,2.98-5.7c-0.84-2.47-3.55-3.92-6.04-3.25l-0.98,0.27c-1.33-3.77-2.6-7.56-3.82-11.37l0.89-0.24
				c2.49-0.68,3.83-3.23,2.98-5.7c-0.84-2.47-3.55-3.93-6.04-3.25l-0.6,0.16c-2.01-6.84-3.85-13.72-5.49-20.62
				c-0.03-0.14-0.07-0.27-0.12-0.41c-2.1-6.27-8.78-10.11-15.21-8.73c-4.07,0.87-8.59,2.73-13.42,5.52
				c-10.98,6.34-16.72,14.89-19.09,19.21c-12.54-0.32-24.81-6.25-33.01-16.42c-1.67-2.07-4.67-2.53-6.71-1.02
				c-2.03,1.51-2.33,4.41-0.66,6.48c12.71,15.77,33.38,23.28,52.65,19.14c4.18-0.9,8.67,1.24,10.69,5.09l-7.48,2.03
				c-2.49,0.68-3.83,3.23-2.98,5.7c0.82,2.42,3.62,3.91,6.04,3.25l8.86-2.41l5.03,9.72c0.2,0.38,0.41,0.77,0.61,1.15l-4.77,1.3
				c-2.49,0.68-3.83,3.23-2.98,5.7c0.82,2.42,3.62,3.91,6.04,3.25l6.36-1.73c1.94,3.41,3.95,6.79,6.04,10.13l-3.16,0.86
				c-2.49,0.68-3.83,3.23-2.98,5.7c0.82,2.42,3.62,3.91,6.04,3.25l5.51-1.5c11.12,16.49,24.01,31.94,38.35,45.94
				c0.2,0.23,0.41,0.44,0.64,0.63c7.31,7.09,14.99,13.82,23,20.11l19.26,15.14c0.13,0.1,0.26,0.19,0.39,0.28
				c2.07,1.34,4.8,1.02,6.28-0.82C376.15,294.11,375.73,291.18,373.62,289.53z M269.61,165.91l-0.65-1.25
				c-3.62-6.99-11.24-11.23-18.87-10.81c2.65-3.2,6.46-6.86,11.71-9.89c4.02-2.32,7.64-3.83,10.78-4.5c1.47-0.31,3,0.52,3.55,1.9
				c1.7,7.11,3.59,14.19,5.67,21.24L269.61,165.91z M279.7,185.35c-0.43-0.81-0.86-1.63-1.29-2.45l-4.36-8.42l10.52-2.86
				c1.22,3.8,2.49,7.59,3.82,11.37L279.7,185.35z M290.54,203.95c-2.12-3.33-4.17-6.7-6.13-10.1l7.22-1.96
				c1.34,3.56,2.74,7.11,4.18,10.63L290.54,203.95z M296.03,212.24l3.48-0.94c2.19,5.05,4.49,10.07,6.9,15.05
				C302.79,221.75,299.33,217.04,296.03,212.24z"/>
		</g>
	</g>
</g>
<g>
	<g>
		<path d="M132.17,295.27c2.7-1.62,5.97-3.56,8.46-4.8c-0.02-0.04-0.02-0.06-0.04-0.1c-2.65,0.4-5.52,0.65-8.76,0.72
			c-4.55,0.11-6.83,0.08-11.42-0.12c-0.35-1.09-0.52-1.63-0.85-2.73c3.35-3.47,5.06-5.15,8.54-8.41c2.57-2.4,4.99-4.43,7.28-6.05
			c-0.01-0.03-0.01-0.05-0.02-0.08c-2.61,0.87-6.14,1.94-9.32,2.81c-3.64,0.99-5.46,1.48-9.11,2.43c-0.34-1.44-0.5-2.16-0.8-3.61
			c8.55-1.92,12.82-2.94,21.33-5.09c0.37,1.66,0.57,2.48,0.99,4.11c-3.58,3.2-5.33,4.86-8.78,8.29c-2.21,2.14-4.17,4.01-6.08,5.63
			c0.02,0.05,0.02,0.07,0.04,0.12c2.27-0.21,4.81-0.26,7.75-0.3c4.53,0.01,6.79-0.06,11.29-0.35c0.57,1.53,0.87,2.28,1.48,3.77
			c-7.68,4.82-11.5,7.28-19.1,12.28c-0.56-1.32-0.84-1.99-1.37-3.33C127.07,298.38,128.77,297.34,132.17,295.27z"/>
		<path d="M130.16,314.53c3.22-2.1,4.83-3.15,8.05-5.26c2.82-5.79,4.34-8.6,7.57-13.99c0.59,1.3,0.89,1.95,1.51,3.23
			c-1.53,2.53-2.28,3.81-3.72,6.43c-0.99,1.79-1.79,3.22-2.71,4.81c0.01,0.03,0.02,0.04,0.04,0.07c1.58-0.19,3.22-0.26,5.11-0.41
			c2.77-0.19,4.15-0.32,6.88-0.64c0.72,1.19,1.09,1.78,1.85,2.94c-5.87,0.55-8.85,0.67-14.86,0.57c-3.19,2.19-4.78,3.28-7.97,5.47
			C131.19,316.46,130.84,315.82,130.16,314.53z"/>
		<path d="M145.86,332.4c0.33,1.76,1.23,3.99,2.77,5.8c2.27,2.68,4.79,3.01,6.41,1.34c1.5-1.55,1.42-3.47,0.05-6.83
			c-1.65-4.02-1.76-7.35,0.66-9.5c2.67-2.37,6.45-1.72,9.4,1.65c1.55,1.77,2.34,3.4,2.65,4.57c-0.89,0.47-1.34,0.7-2.24,1.16
			c-0.24-0.86-0.83-2.49-2.23-4.08c-2.11-2.41-4.23-2.11-5.38-1.05c-1.57,1.46-1.45,3.35-0.07,6.78c1.69,4.2,1.96,7.11-0.34,9.59
			c-2.42,2.61-6.73,2.75-10.84-2.12c-1.68-1.99-2.97-4.68-3.23-6.36C144.43,332.98,144.9,332.78,145.86,332.4z"/>
		<path d="M156.6,349.77c6.09-6.95,9.14-10.42,15.23-17.37c0.93,0.89,1.4,1.33,2.36,2.2c-0.84,5.56-1.14,8.38-1.48,14.1
			c-0.2,3.31-0.46,6.18-0.85,8.84c0.03,0.01,0.05,0.01,0.08,0.02c1.54-2.71,3.12-5.05,5.21-7.99c2.25-3.16,3.37-4.74,5.62-7.9
			c0.89,0.66,1.33,0.99,2.24,1.62c-5.23,7.66-7.84,11.49-13.06,19.16c-1.13-0.8-1.69-1.2-2.79-2.03c0.04-5.84,0.19-8.74,0.73-14.45
			c0.29-3.13,0.78-6.24,1.52-8.95c-0.04-0.02-0.06-0.03-0.1-0.04c-1.75,2.34-3.49,4.52-5.96,7.46c-2.55,3.02-3.82,4.53-6.37,7.55
			C158,351.11,157.53,350.66,156.6,349.77z"/>
		<path d="M193.74,362.91c-3.42-1.73-5.1-2.66-8.37-4.65c-1.72,2.87-2.59,4.3-4.31,7.17c3.85,2.34,5.83,3.42,9.87,5.42
			c-0.46,0.9-0.69,1.34-1.14,2.24c-5.32-2.64-7.91-4.1-12.91-7.31c4.95-7.85,7.42-11.78,12.37-19.63c4.12,2.65,6.25,3.86,10.63,6.06
			c-0.46,0.89-0.69,1.34-1.15,2.23c-3.39-1.7-5.06-2.62-8.3-4.59c-1.51,2.51-2.27,3.77-3.78,6.28c3.22,1.96,4.87,2.87,8.24,4.58
			C194.43,361.59,194.2,362.03,193.74,362.91z"/>
		<path d="M200.67,370.04c-2.16,2.26-3.25,3.38-5.49,5.58c-1.29-0.57-1.94-0.86-3.21-1.47c7.34-6.79,10.81-10.35,17.32-17.75
			c1.32,0.52,1.98,0.77,3.32,1.24c-0.48,9.65-0.46,14.53,0.13,24.28c-1.42-0.4-2.12-0.61-3.52-1.05c-0.1-3.08-0.13-4.61-0.13-7.68
			C205.67,372.05,203.98,371.41,200.67,370.04z M209.27,370.8c0.03-2.8,0.06-4.2,0.17-7c0.06-1.58,0.26-2.98,0.44-4.34
			c-0.03-0.01-0.04-0.01-0.06-0.02c-0.85,1.15-1.74,2.31-2.72,3.45c-1.91,2.13-2.89,3.19-4.87,5.27
			C205.01,369.29,206.42,369.82,209.27,370.8z"/>
		<path d="M223.29,360.88c1.15,0.29,1.73,0.43,2.89,0.69c-1.21,4.28-1.82,6.41-3.03,10.69c0.04,0.01,0.06,0.01,0.11,0.02
			c0.89-0.71,1.75-1.36,2.55-1.96c3.83-2.73,5.68-4.16,9.22-7.12c1.47,0.21,2.22,0.31,3.7,0.48c-4.08,3.44-6.22,5.1-10.69,8.23
			c2.51,5.84,3.95,8.73,7.23,14.37c-1.65-0.18-2.48-0.28-4.12-0.5c-2.61-4.9-3.78-7.39-5.84-12.42c-1.19,0.79-1.79,1.17-3.01,1.94
			c-0.96,3.38-1.44,5.07-2.4,8.45c-1.35-0.3-2.02-0.46-3.36-0.8C219.23,374.11,220.58,369.7,223.29,360.88z"/>
		<path d="M252.97,376.43c-4.04,0.06-6.04,0.01-10.01-0.24c-0.47,3.26-0.7,4.89-1.17,8.15c4.67,0.29,7.03,0.34,11.78,0.22
			c-0.07,0.98-0.1,1.47-0.17,2.45c-6.26,0.15-9.37,0.04-15.49-0.49c1.5-9.02,2.25-13.54,3.74-22.56c5.05,0.44,7.6,0.53,12.77,0.43
			c-0.07,0.98-0.11,1.47-0.18,2.45c-4,0.08-5.98,0.03-9.91-0.21c-0.41,2.86-0.62,4.28-1.03,7.14c3.91,0.24,5.88,0.29,9.85,0.23
			C253.08,374.98,253.05,375.46,252.97,376.43z"/>
		<path d="M258.96,364.53c1.59-0.39,3.84-0.72,5.99-0.95c3.34-0.35,5.52-0.11,7.13,0.89c1.29,0.8,2.12,2.19,2.24,3.91
			c0.21,2.95-1.83,5.3-4.59,6.49c0,0.04,0,0.06,0,0.1c2.06,0.31,3.37,1.71,4.17,3.91c1.07,2.96,1.92,4.99,2.58,5.75
			c-1.52,0.28-2.28,0.41-3.8,0.65c-0.5-0.56-1.25-2.4-2.11-5.07c-0.95-2.95-2.39-3.92-5.49-3.69c-1.29,0.14-1.93,0.2-3.22,0.3
			c-0.07,3.91-0.1,5.87-0.17,9.78c-1.45,0.12-2.18,0.17-3.62,0.25C258.43,377.91,258.61,373.45,258.96,364.53z M261.91,374.6
			c1.37-0.11,2.06-0.18,3.44-0.32c3.6-0.39,5.82-2.46,5.7-5.02c-0.13-2.89-2.53-3.79-5.87-3.45c-1.53,0.15-2.63,0.39-3.14,0.56
			C261.99,369.65,261.96,371.3,261.91,374.6z"/>
		<path d="M279.81,380.4c1.69,0.45,4.16,0.57,6.67-0.08c3.73-0.96,5.63-3.16,5.23-5.35c-0.37-2.03-2.1-2.76-5.84-2.91
			c-4.5-0.18-7.36-1.51-7.67-4.64c-0.34-3.46,2.56-6.63,7.32-7.93c2.51-0.69,4.43-0.74,5.64-0.55c-0.17,1.02-0.26,1.54-0.44,2.56
			c-0.9-0.13-2.68-0.26-4.94,0.35c-3.41,0.93-4.48,2.99-4.29,4.5c0.25,2.06,1.93,2.76,5.75,2.93c4.68,0.21,7.39,1.15,8.06,4.31
			c0.7,3.33-1.98,7.41-8.74,9.13c-2.76,0.71-5.85,0.74-7.44,0.26C279.41,381.96,279.54,381.44,279.81,380.4z"/>
	</g>
</g>
</svg>
