<?xml version="1.0" encoding="utf-8"?>
<!-- Generator: Adobe Illustrator 25.2.1, SVG Export Plug-In . SVG Version: 6.00 Build 0)  -->
<svg version="1.1" id="Calque_1" xmlns="http://www.w3.org/2000/svg" xmlns:xlink="http://www.w3.org/1999/xlink" x="0px" y="0px"
	 viewBox="0 0 500 500" style="enable-background:new 0 0 500 500;" xml:space="preserve">
<style type="text/css">
	.st0{fill:none;stroke:url(#SVGID_1_);stroke-width:9;stroke-miterlimit:10;}
	.st1{fill:none;stroke:url(#SVGID_2_);stroke-width:9;stroke-miterlimit:10;}
	.st2{fill:#FFFFFF;}
</style>
<linearGradient id="SVGID_1_" gradientUnits="userSpaceOnUse" x1="174.2871" y1="380.0404" x2="222.0221" y2="297.3609">
	<stop  offset="0" style="stop-color:#FF6D00"/>
	<stop  offset="0.2416" style="stop-color:#E76536"/>
	<stop  offset="1" style="stop-color:#9D4EDD"/>
</linearGradient>
<path class="st0" d="M336.89,368.06C312.61,385.64,282.76,396,250.5,396C169.04,396,103,329.96,103,248.5
	c0-1.42,0.02-2.83,0.06-4.24c0.02-0.6,0.04-1.21,0.07-1.81c0.14-3.59,0.42-7.13,0.82-10.65v-0.01"/>
<linearGradient id="SVGID_2_" gradientUnits="userSpaceOnUse" x1="282.3351" y1="231.0678" x2="342.8399" y2="126.2705">
	<stop  offset="0" style="stop-color:#FF6D00"/>
	<stop  offset="0.2416" style="stop-color:#E76536"/>
	<stop  offset="1" style="stop-color:#9D4EDD"/>
</linearGradient>
<path class="st1" d="M208.01,107.22c13.45-4.05,27.71-6.22,42.49-6.22c81.46,0,147.5,66.04,147.5,147.5
	c0,15.44-2.37,30.32-6.77,44.31"/>
<g>
	<g>
		<g>
			<path class="st2" d="M388.04,338.12c5.56-8.96,6.36-20.27,2.13-30.43c-0.89-2.14-3.12-3.62-5.4-3.29
				c-3.06,0.44-4.63,3.46-3.48,6.17c2.98,7.03,2.67,14.81-0.78,21.21c-5.98-1.47-12.25-0.91-17.63,1.55
				c-38.4-11.15-70.51-27.63-95.58-49.04l-20.19-19.8c-0.49-0.54-0.99-1.07-1.48-1.6c-1.3-1.44-2.49-2.79-3.62-4.08l-16.7-20.29
				c-1.66-1.97-3.48-4.06-5.53-6.34c-0.03-0.03-0.06-0.07-0.09-0.1l-19.7-19.81c-3.56-3.2-7.21-6.31-10.9-9.26
				c-0.85-0.68-1.72-1.36-2.59-2.03l1.15-1.77c7.07-10.91,3.36-25.87-8.28-33.41l-25.98-16.82l0.07-0.1
				c4.19-6.48,9.29-12.33,15.15-17.4l14.87-12.87c0.73-0.63,1.53-0.46,1.94-0.31c0.41,0.16,1.13,0.57,1.29,1.54l0.98,5.72
				c0.38,2.2,2.21,4.05,4.48,4.27c3.16,0.31,5.45-2.24,4.96-5.12l-0.97-5.66c-0.55-3.21-2.38-6.21-5.2-8.08
				c-4.6-3.05-10.31-2.71-14.05,0.52l-14.87,12.87c-6.47,5.6-12.1,12.07-16.74,19.22l-16.18,24.98c-2.11-0.13-4.21,0.29-6.05,1.27
				l-26,13.86c0,0,0,0,0,0l-0.07,0.04c-0.02,0.01-0.04,0.03-0.07,0.04c-0.12,0.07-0.24,0.14-0.35,0.22
				c-0.04,0.03-0.08,0.05-0.11,0.08c-0.1,0.08-0.2,0.15-0.3,0.24c-0.04,0.03-0.07,0.06-0.11,0.1c-0.09,0.09-0.18,0.18-0.27,0.28
				c-0.03,0.03-0.06,0.06-0.09,0.1c-9.58,11.49-3.23,30.74,9.22,38.8l61.34,39.73c1.69,1.09,3.65,1.73,5.61,1.66
				c2.59-0.09,4.82-1.22,6.26-3.08l5.56,5.04c2.24,2.03,5.79,1.74,7.33-0.85c1.11-1.86,0.54-4.33-1.17-5.88l-5.93-5.38
				c-1.98-1.86-4.62-2.79-7.27-2.55c-2.37,0.21-4.46,1.34-5.84,3.13l-14.01-9.07c5.12-12.3,0.33-27.33-11.98-35.3l-35.91-23.26
				l19.3-10.29c0.38-0.2,0.83-0.26,1.27-0.18c0.38,0.21,0.77,0.37,1.17,0.47c13.34,6.21,26.23,13.55,38.31,21.84
				c4.89,3.35,9.65,6.87,14.15,10.46c4.12,3.29,8.2,6.78,12.11,10.36c6.26,5.83,12.23,11.9,17.74,18.04
				c8.82,9.83,16.6,20.46,25.47,30.26c4.79,5.3,9.79,10.45,14.88,15.36c0.01,0.01,0.02,0.02,0.03,0.03
				c0.01,0.01,0.01,0.01,0.02,0.02c25.37,23.98,58.33,42.53,98.07,55.24l-16.03,9.01l-34.6-10.85c-2.41-0.75-4.7-1.84-6.83-3.21
				l-6-3.89l-36.09-42.59c-4.79-5.65-12.18-8.39-19.3-7.16l-16.11,2.78l-11.19-10.15c-2.24-2.03-5.8-1.73-7.33,0.88
				c-1.09,1.85-0.53,4.3,1.17,5.84l12.92,11.72c0.89,0.81,1.85,1.55,2.87,2.21l67.47,43.7c0.01,0.01,0.02,0.01,0.03,0.02l6.87,4.45
				c2.91,1.89,6.06,3.36,9.35,4.4l36.61,11.46c0.03,0.01,0.06,0.02,0.09,0.03l16.3,5.1c11.2,3.5,23.22-0.54,29.24-9.83l6.29-9.72
				C388.18,341.97,388.48,340,388.04,338.12z M140.18,218.87c7.41,4.8,10.58,13.6,8.23,21.19l-38.42-24.88
				c-7.41-4.8-10.58-13.6-8.23-21.19L140.18,218.87z M178.63,195.24c-12.58-9.01-25.96-16.94-39.87-23.7l9.67-14.93l25.96,16.81
				c7.15,4.63,9.42,13.81,5.09,20.51L178.63,195.24z M226.7,291.6l7.49-1.28c3.66-0.63,7.46,0.79,9.93,3.69l16.71,19.7L226.7,291.6
				L226.7,291.6z M353.81,354.59l-5.82-1.83l17.95-10.09c3.37-1.9,7.44-2.53,11.39-1.82l-4.85,7.48
				C368.61,354.3,361.02,356.85,353.81,354.59z"/>
		</g>
	</g>
	<g>
		<g>
			<path class="st2" d="M373.62,289.53l-19.26-15.14c-7.7-6.05-15.07-12.51-22.1-19.32c-8.84-14.92-16.8-30.46-23.69-46.23
				l0.62-0.17c2.49-0.68,3.83-3.23,2.98-5.7c-0.84-2.47-3.55-3.93-6.04-3.25l-1.28,0.35c-1.44-3.52-2.84-7.07-4.19-10.63l0.79-0.22
				c2.49-0.68,3.83-3.23,2.98-5.7c-0.84-2.47-3.55-3.92-6.04-3.25l-0.98,0.27c-1.33-3.77-2.6-7.56-3.82-11.37l0.89-0.24
				c2.49-0.68,3.83-3.23,2.98-5.7c-0.84-2.47-3.55-3.93-6.04-3.25l-0.6,0.16c-2.01-6.84-3.85-13.72-5.49-20.62
				c-0.03-0.14-0.07-0.27-0.12-0.41c-2.1-6.27-8.78-10.11-15.21-8.73c-4.07,0.87-8.59,2.73-13.42,5.52
				c-10.98,6.34-16.72,14.89-19.09,19.21c-12.54-0.32-24.81-6.25-33.01-16.42c-1.67-2.07-4.67-2.53-6.71-1.02
				c-2.03,1.51-2.33,4.41-0.66,6.48c12.71,15.77,33.38,23.28,52.65,19.14c4.18-0.9,8.67,1.24,10.69,5.09l-7.48,2.03
				c-2.49,0.68-3.83,3.23-2.98,5.7c0.82,2.42,3.62,3.91,6.04,3.25l8.86-2.41l5.03,9.72c0.2,0.38,0.41,0.77,0.61,1.15l-4.77,1.3
				c-2.49,0.68-3.83,3.23-2.98,5.7c0.82,2.42,3.62,3.91,6.04,3.25l6.36-1.73c1.94,3.41,3.95,6.79,6.04,10.13l-3.16,0.86
				c-2.49,0.68-3.83,3.23-2.98,5.7c0.82,2.42,3.62,3.91,6.04,3.25l5.51-1.5c11.12,16.49,24.01,31.94,38.35,45.94
				c0.2,0.23,0.41,0.44,0.64,0.63c7.31,7.09,14.99,13.82,23,20.11l19.26,15.14c0.13,0.1,0.26,0.19,0.39,0.28
				c2.07,1.34,4.8,1.02,6.28-0.82C376.15,294.11,375.73,291.18,373.62,289.53z M269.61,165.91l-0.65-1.25
				c-3.62-6.99-11.24-11.23-18.87-10.81c2.65-3.2,6.46-6.86,11.71-9.89c4.02-2.32,7.64-3.83,10.78-4.5c1.47-0.31,3,0.52,3.55,1.9
				c1.7,7.11,3.59,14.19,5.67,21.24L269.61,165.91z M279.7,185.35c-0.43-0.81-0.86-1.63-1.29-2.45l-4.36-8.42l10.52-2.86
				c1.22,3.8,2.49,7.59,3.82,11.37L279.7,185.35z M290.54,203.95c-2.12-3.33-4.17-6.7-6.13-10.1l7.22-1.96
				c1.34,3.56,2.74,7.11,4.18,10.63L290.54,203.95z M296.03,212.24l3.48-0.94c2.19,5.05,4.49,10.07,6.9,15.05
				C302.79,221.75,299.33,217.04,296.03,212.24z"/>
		</g>
	</g>
</g>
<g>
	<g>
		<path class="st2" d="M137.44,268.76c0.45,2.1,0.69,3.14,1.22,5.2c-2.79,4.02-4.13,6.1-6.68,10.4c4.23,1.09,6.35,1.53,10.57,2.21
			c0.75,2.04,1.14,3.05,1.96,5.03c-8.19,4.17-12.29,6.23-20.51,10.33c-1.01-2.48-1.5-3.74-2.41-6.3c3.64-2.2,5.47-3.29,9.14-5.44
			c-3.08-1.04-4.62-1.62-7.68-2.91c1.78-3.11,2.71-4.63,4.61-7.6c-4,1.27-6,1.9-10.01,3.14c-0.76-2.93-1.11-4.41-1.75-7.42
			C124.52,272.78,128.83,271.45,137.44,268.76z"/>
		<path class="st2" d="M135.61,306.65c3.48-5.9,5.32-8.75,9.2-14.21c1.01,2.27,1.53,3.38,2.64,5.57c-1.63,3.24-2.41,4.89-3.9,8.26
			c3.28,0.03,4.92-0.01,8.16-0.19c1.37,2.37,2.08,3.52,3.56,5.78c-6.42,1.05-9.68,1.4-16.29,1.73c-2.76,1.97-4.15,2.95-6.91,4.92
			c-1.6-2.82-2.37-4.27-3.82-7.21C131.2,309.44,132.67,308.51,135.61,306.65z"/>
		<path class="st2" d="M147.03,330.11c1.77,2.32,2.68,3.45,4.56,5.66c1.06-5.04,1.68-7.52,3.09-12.39c1.24-1.09,1.87-1.64,3.11-2.74
			c1.65-0.77,3.17,0.08,4.48,0.92c2.64,3.25,4.03,4.81,6.92,7.79c-1.78,1.94-2.67,2.91-4.45,4.84c-2.03-2.09-3.02-3.17-4.93-5.39
			c-0.89,4.94-1.25,7.45-1.75,12.54c-1,1.08-1.5,1.61-2.5,2.69c-1.98,1.36-3.56,0.94-5.11-0.19c-3.38-3.69-5-5.62-8.06-9.64
			C144.24,332.57,145.17,331.75,147.03,330.11z"/>
		<path class="st2" d="M170.93,331.16c1.89,1.87,2.87,2.77,4.85,4.52c-0.89,5.38-1.22,8.12-1.67,13.65c2.9-3.68,4.35-5.52,7.24-9.21
			c1.82,1.48,2.75,2.2,4.64,3.59c-5.51,7.74-8.28,11.6-13.87,19.29c-1.95-1.43-2.91-2.17-4.8-3.68c0.12-6.59,0.34-9.85,1.08-16.25
			c-3.44,4.03-5.17,6.05-8.62,10.07c-1.88-1.66-2.8-2.52-4.61-4.28C161.47,341.78,164.63,338.24,170.93,331.16z"/>
		<path class="st2" d="M188.61,345.38c4.29,2.83,6.52,4.12,11.11,6.45c-0.99,2.2-1.49,3.31-2.47,5.52c-2.84-1.2-4.24-1.84-7-3.22
			c-0.57,0.77-0.86,1.15-1.44,1.92c2.65,1.75,4,2.58,6.77,4.16c-0.97,1.73-1.46,2.6-2.44,4.33c-2.88-1.14-4.31-1.76-7.12-3.08
			c-0.41,0.73-0.61,1.09-1.01,1.81c2.64,1.9,4,2.81,6.77,4.54c-1.08,2.13-1.62,3.19-2.7,5.32c-4.88-2.49-7.25-3.86-11.84-6.84
			c-0.3-0.65-0.45-0.97-0.74-1.62C181.34,356.95,183.76,353.09,188.61,345.38z"/>
		<path class="st2" d="M206.23,354.99c2.9,1.16,4.38,1.69,7.36,2.64c-1.18,9.61-1.57,14.45-1.94,24.18
			c-2.77-0.76-4.14-1.17-6.86-2.08c0.26-2.18,0.4-3.27,0.69-5.45c-2.45-0.88-3.66-1.36-6.05-2.36c-1.63,1.63-2.45,2.44-4.12,4.04
			c-2.26-1.02-3.38-1.56-5.58-2.69C196.68,366.22,199.99,362.55,206.23,354.99z M206.72,363.27c-0.24,0.11-2.32,1.97-3.44,3.55
			c1.76,0.59,2.59,1.02,3.68,1.18C207.46,366.59,207.32,364.78,206.72,363.27z"/>
		<path class="st2" d="M220.5,359.83c2.16,0.6,3.26,0.88,5.46,1.38c-1.1,3.74-1.65,5.61-2.75,9.35c3.83-3.12,5.67-4.74,9.19-8.08
			c2.41,0.41,3.63,0.58,6.08,0.86c-3.26,3.86-4.98,5.76-8.58,9.43c1.56,5.51,2.47,8.25,4.55,13.66c-3.07-0.35-4.59-0.56-7.61-1.07
			c-1.34-3.9-1.94-5.86-3-9.79c-0.7-0.29-1.04-0.43-1.73-0.73c-0.89,3.66-1.34,5.49-2.22,9.16c-2.91-0.65-4.35-1.02-7.21-1.82
			C215.82,373.25,217.39,368.78,220.5,359.83z"/>
		<path class="st2" d="M240.47,363.6c5.45,0.5,8.22,0.6,13.8,0.47c-0.34,2.42-0.52,3.63-0.88,6.05c-3.3,0.21-4.95,0.26-8.23,0.26
			c-0.07,0.86-0.11,1.29-0.18,2.14c3.25,0.39,4.89,0.53,8.21,0.71c-0.15,1.98-0.23,2.97-0.38,4.95c-3.31,0.23-4.96,0.29-8.25,0.32
			c-0.06,0.89-0.08,1.33-0.14,2.22c3.24,0.45,4.88,0.63,8.2,0.88c-0.16,2.25-0.23,3.38-0.39,5.63c-4.75,0.07-7.1,0.01-11.77-0.31
			c-1.6-0.19-2.4-0.29-3.99-0.52C238.08,377.28,238.87,372.72,240.47,363.6z"/>
		<path class="st2" d="M257.3,363.98c4.37-0.14,6.57-0.31,11.01-0.85c2.71,0.09,4.2,0.32,6.33,2.41c0.18,2.46,0.27,3.68,0.45,6.14
			c-0.81,1.95-2,3.5-3.58,4.53c2.82,3.35,4.32,4.99,7.48,8.15c-3.02,0.62-4.52,0.9-7.53,1.36c-3.21-2.95-4.72-4.48-7.58-7.62
			c-0.23,3.41-0.35,5.12-0.6,8.54c-3.05,0.28-4.57,0.38-7.59,0.5C256.36,377.87,256.68,373.24,257.3,363.98z M265.4,368.3
			c-1.84,0.91-2.41,1.92-1.61,3.49c2.18,1.44,3.58,0.37,3.93-0.43C268.22,370.23,267.58,368.85,265.4,368.3z"/>
		<path class="st2" d="M278.48,378.34c3.11-0.63,4.67-0.99,7.79-1.8c-3.66-3.09-5.38-4.7-8.63-8.05c-0.1-1.59-0.15-2.38-0.26-3.96
			c0.67-1.86,2.32-3.04,3.86-3.82c4.28-1,6.42-1.6,10.72-2.99c0.49,2.42,0.74,3.63,1.23,6.05c-3.06,1.03-4.58,1.5-7.64,2.34
			c3.49,2.93,5.33,4.33,9.21,6.97c0.28,1.41,0.41,2.11,0.69,3.52c-0.24,2.18-1.64,3.54-2.84,4.43c-5.56,1.64-8.34,2.33-13.87,3.42
			C278.65,382,278.59,380.78,278.48,378.34z"/>
	</g>
</g>
</svg>
