<svg xmlns="http://www.w3.org/2000/svg" viewBox="0 0 1610 1346" width="1610" height="1346"><defs><style type="text/css">@import url('https://fonts.googleapis.com/css?family=Roboto+Mono:400|Roboto:400,&amp;subset=cyrillic,cyrillic-ext,greek,greek-ext,latin-ext')</style></defs><text x="805" y="69" text-anchor="middle" font-size="64px" font-family="Roboto,sans-serif" fill="#52565f">MySneakers</text><text x="1605" y="1327" text-anchor="end" font-size="14px" font-family="Roboto,sans-serif" color="#52565f">10 November 2020</text><g transform="translate(5,173)"><g><g><g transform="translate(10, 586)"><rect x="0" y="0" rx="2" ry="2" width="180" height="228" fill="#ffffff"/><g><g><g transform="translate( 0, 0 )"><svg xmlns="http://www.w3.org/2000/svg" xmlns:xlink="http://www.w3.org/1999/xlink" width="180" height="185" viewBox="0 0 180 185">
  <defs>
    <rect id="gh4swrlsiku-item-a" width="80" height="115" rx="2"/>
    <path id="gh4swrlsiku-item-c" d="M0,1.99508929 C0,0.893231902 0.897026226,0 2.00494659,0 L21.9950534,0 C23.1023548,0 24,0.892622799 24,1.99508929 L24,16.0049107 C24,17.1067681 23.1029738,18 21.9950534,18 L2.00494659,18 C0.897645164,18 0,17.1073772 0,16.0049107 L0,1.99508929 Z"/>
    <path id="gh4swrlsiku-item-e" d="M0,1.99508929 C0,0.893231902 0.897026226,0 2.00494659,0 L21.9950534,0 C23.1023548,0 24,0.892622799 24,1.99508929 L24,16.0049107 C24,17.1067681 23.1029738,18 21.9950534,18 L2.00494659,18 C0.897645164,18 0,17.1073772 0,16.0049107 L0,1.99508929 Z"/>
    <path id="gh4swrlsiku-item-g" d="M0,1.99508929 C0,0.893231902 0.897026226,0 2.00494659,0 L21.9950534,0 C23.1023548,0 24,0.892622799 24,1.99508929 L24,16.0049107 C24,17.1067681 23.1029738,18 21.9950534,18 L2.00494659,18 C0.897645164,18 0,17.1073772 0,16.0049107 L0,1.99508929 Z"/>
  </defs>
  <g fill="none" fill-rule="evenodd">
    <path fill="#58A8F7" d="M0,2.99971296 C0,1.34301724 1.34537458,0 2.99263929,0 L177.007361,0 C178.66015,0 180,1.34382565 180,2.99971296 L180,185 L0,185 L0,2.99971296 Z" opacity=".097"/>
    <g transform="translate(10 26)">
      <rect width="80" height="115" fill="#58A8F7" opacity=".197" rx="2"/>
      <mask id="gh4swrlsiku-item-b" fill="#fff">
        <use xlink:href="#gh4swrlsiku-item-a"/>
      </mask>
      <use fill="#58A8F7" opacity="0" xlink:href="#gh4swrlsiku-item-a"/>
      <path fill="#58A8F7" d="M62.7821782,58 C76.6831683,58 83.4554455,82.3370787 97,115 C85.950495,115 38.6468905,115 25,115 C36.7623762,88.1011236 48.8811881,58 62.7821782,58 Z" mask="url(#gh4swrlsiku-item-b)" opacity=".197"/>
      <path fill="#0D87FF" d="M18,47 C33.7411872,47 43.9259259,79.4242535 58,115 C39.5337316,115 -5.18555008,115 -22,115 C-8.40533836,79.4242535 2.25881284,47 18,47 Z" mask="url(#gh4swrlsiku-item-b)" opacity=".198"/>
      <circle cx="44" cy="31" r="7" fill="#58A8F7" mask="url(#gh4swrlsiku-item-b)" opacity=".499"/>
    </g>
    <g transform="translate(10 151)">
      <path fill="#58A8F7" d="M0,1.99508929 C0,0.893231902 0.897026226,0 2.00494659,0 L21.9950534,0 C23.1023548,0 24,0.892622799 24,1.99508929 L24,16.0049107 C24,17.1067681 23.1029738,18 21.9950534,18 L2.00494659,18 C0.897645164,18 0,17.1073772 0,16.0049107 L0,1.99508929 Z" opacity=".197"/>
      <mask id="gh4swrlsiku-item-d" fill="#fff">
        <use xlink:href="#gh4swrlsiku-item-c"/>
      </mask>
      <path fill="#58A8F7" d="M20.5714286,9.81818182 C25.2050919,9.81818182 28.0565771,13.3115424 32.5714286,18 C28.8882603,18 13.1203921,18 8.57142857,18 C12.4922207,14.1389173 15.9377652,9.81818182 20.5714286,9.81818182 Z" mask="url(#gh4swrlsiku-item-d)" opacity=".197"/>
      <path fill="#0D87FF" d="M3.42857143,8.18181818 C8.31958315,8.18181818 11.9126984,12.8633949 16.2857143,18 C10.5479809,18 -3.34693878,18 -8.57142857,18 C-4.34737299,12.8633949 -1.4624403,8.18181818 3.42857143,8.18181818 Z" mask="url(#gh4swrlsiku-item-d)" opacity=".198"/>
      <circle cx="12.857" cy="5.727" r="3" fill="#58A8F7" mask="url(#gh4swrlsiku-item-d)" opacity=".499"/>
    </g>
    <g transform="translate(38 151)">
      <path fill="#58A8F7" d="M0,1.99508929 C0,0.893231902 0.897026226,0 2.00494659,0 L21.9950534,0 C23.1023548,0 24,0.892622799 24,1.99508929 L24,16.0049107 C24,17.1067681 23.1029738,18 21.9950534,18 L2.00494659,18 C0.897645164,18 0,17.1073772 0,16.0049107 L0,1.99508929 Z" opacity=".197"/>
      <mask id="gh4swrlsiku-item-f" fill="#fff">
        <use xlink:href="#gh4swrlsiku-item-e"/>
      </mask>
      <path fill="#58A8F7" d="M20.5714286,9.81818182 C25.2050919,9.81818182 28.0565771,13.3115424 32.5714286,18 C28.8882603,18 13.1203921,18 8.57142857,18 C12.4922207,14.1389173 15.9377652,9.81818182 20.5714286,9.81818182 Z" mask="url(#gh4swrlsiku-item-f)" opacity=".197"/>
      <path fill="#0D87FF" d="M3.42857143,8.18181818 C8.31958315,8.18181818 11.9126984,12.8633949 16.2857143,18 C10.5479809,18 -3.34693878,18 -8.57142857,18 C-4.34737299,12.8633949 -1.4624403,8.18181818 3.42857143,8.18181818 Z" mask="url(#gh4swrlsiku-item-f)" opacity=".198"/>
      <circle cx="12.857" cy="5.727" r="3" fill="#58A8F7" mask="url(#gh4swrlsiku-item-f)" opacity=".499"/>
    </g>
    <g transform="translate(66 151)">
      <path fill="#58A8F7" d="M0,1.99508929 C0,0.893231902 0.897026226,0 2.00494659,0 L21.9950534,0 C23.1023548,0 24,0.892622799 24,1.99508929 L24,16.0049107 C24,17.1067681 23.1029738,18 21.9950534,18 L2.00494659,18 C0.897645164,18 0,17.1073772 0,16.0049107 L0,1.99508929 Z" opacity=".197"/>
      <mask id="gh4swrlsiku-item-h" fill="#fff">
        <use xlink:href="#gh4swrlsiku-item-g"/>
      </mask>
      <path fill="#58A8F7" d="M20.5714286,9.81818182 C25.2050919,9.81818182 28.0565771,13.3115424 32.5714286,18 C28.8882603,18 13.1203921,18 8.57142857,18 C12.4922207,14.1389173 15.9377652,9.81818182 20.5714286,9.81818182 Z" mask="url(#gh4swrlsiku-item-h)" opacity=".197"/>
      <path fill="#0D87FF" d="M3.42857143,8.18181818 C8.31958315,8.18181818 11.9126984,12.8633949 16.2857143,18 C10.5479809,18 -3.34693878,18 -8.57142857,18 C-4.34737299,12.8633949 -1.4624403,8.18181818 3.42857143,8.18181818 Z" mask="url(#gh4swrlsiku-item-h)" opacity=".198"/>
      <circle cx="12.857" cy="5.727" r="3" fill="#58A8F7" mask="url(#gh4swrlsiku-item-h)" opacity=".499"/>
    </g>
    <g fill="#58A8F7" opacity=".499" transform="translate(100 26)">
      <polygon points="0 0 50 0 50 5 0 5"/>
      <polygon points="0 0 30 0 30 5 0 5" transform="translate(0 9)"/>
    </g>
    <polygon fill="#58A8F7" points="0 0 27 0 27 9 0 9" opacity=".499" transform="translate(100 50)"/>
    <g fill="#58A8F7" opacity=".197" transform="translate(100 99)">
      <polygon points="0 0 70 0 70 3 0 3" transform="translate(0 14)"/>
      <polygon points="0 0 70 0 70 3 0 3" transform="translate(0 7)"/>
      <polygon points="0 0 70 0 70 3 0 3"/>
      <polygon points="0 0 42 0 42 3 0 3" transform="translate(0 21)"/>
    </g>
    <circle cx="5" cy="5" r="5" fill="#58A8F7" opacity=".197" transform="translate(100 64)"/>
    <circle cx="5" cy="5" r="5" fill="#58A8F7" opacity=".197" transform="translate(114 64)"/>
    <circle cx="5" cy="5" r="5" fill="#58A8F7" opacity=".197" transform="translate(128 64)"/>
    <circle cx="5" cy="5" r="5" fill="#58A8F7" opacity=".197" transform="translate(142 64)"/>
    <g transform="translate(100 78)">
      <rect width="57" height="11" fill="#58A8F7" opacity=".499" rx="2"/>
      <rect width="55" height="9" x="1" y="1" fill="#FFF" rx="1"/>
      <polygon fill="#58A8F7" points="0 0 32 0 32 3 0 3" opacity=".197" transform="translate(4 4)"/>
      <polygon fill="#0D87FF" points="2.5 3 0 0 5 0" transform="translate(47 4)"/>
    </g>
    <path fill="#0D87FF" d="M0,1.99201702 C0,0.891856397 0.894337654,0 1.99821383,0 L29.0017862,0 C30.1053692,0 31,0.900176167 31,1.99201702 L31,9.00798298 C31,10.1081436 30.1056623,11 29.0017862,11 L1.99821383,11 C0.894630804,11 0,10.0998238 0,9.00798298 L0,1.99201702 Z" opacity=".499" transform="translate(100 130)"/>
    <path fill="#58A8F7" d="M0,3.00947762 C0,1.34738902 1.34537458,0 2.99263929,0 L177.007361,0 C178.66015,0 180,1.33663106 180,3.00947762 L180,16 L0,16 L0,3.00947762 Z" opacity=".197"/>
    <path fill="#0D87FF" d="M2.5,5 C1.11928813,5 0,3.88071187 0,2.5 C0,1.11928813 1.11928813,0 2.5,0 C3.88071187,0 5,1.11928813 5,2.5 C5,3.88071187 3.88071187,5 2.5,5 Z M10.5,5 C9.11928813,5 8,3.88071187 8,2.5 C8,1.11928813 9.11928813,0 10.5,0 C11.8807119,0 13,1.11928813 13,2.5 C13,3.88071187 11.8807119,5 10.5,5 Z M18.5,5 C17.1192881,5 16,3.88071187 16,2.5 C16,1.11928813 17.1192881,0 18.5,0 C19.8807119,0 21,1.11928813 21,2.5 C21,3.88071187 19.8807119,5 18.5,5 Z" opacity=".499" transform="translate(5 6)"/>
  </g>
</svg></g></g></g><rect x="-1" y="-1" rx="3" ry="3" width="182" height="230" fill="none" stroke="#A2CEF9" stroke-width="2"/><g transform="translate(0,206)"><g><text x="90" y="4" text-anchor="middle" font-family="Roboto,sans-serif" font-size="14px" fill="#52565f">Page Sneakers</text></g></g></g><g transform="translate(10, 306)"><rect x="0" y="0" rx="2" ry="2" width="180" height="228" fill="#ffffff"/><g><g><g transform="translate( 0, 0 )"><svg xmlns="http://www.w3.org/2000/svg" width="180" height="184" viewBox="0 0 180 184" fill="none">
<path d="M0 3C0 1.34315 1.34315 0 3 0H177C178.657 0 180 1.34315 180 3V184H0V3Z" fill="#EFF7FF"/>
<path opacity="0.2" d="M0 3C0 1.34315 1.34315 0 3 0H177C178.657 0 180 1.34315 180 3V15H0V3Z" fill="#58A8F7"/>
<path opacity="0.5" fill-rule="evenodd" clip-rule="evenodd" d="M7.5 10C8.88071 10 10 8.88071 10 7.5C10 6.11929 8.88071 5 7.5 5C6.11929 5 5 6.11929 5 7.5C5 8.88071 6.11929 10 7.5 10ZM15.5 10C16.8807 10 18 8.88071 18 7.5C18 6.11929 16.8807 5 15.5 5C14.1193 5 13 6.11929 13 7.5C13 8.88071 14.1193 10 15.5 10ZM26 7.5C26 8.88071 24.8807 10 23.5 10C22.1193 10 21 8.88071 21 7.5C21 6.11929 22.1193 5 23.5 5C24.8807 5 26 6.11929 26 7.5Z" fill="#0D87FF"/>
<rect x="64" y="25" width="32" height="38" rx="3" fill="white"/>
<rect opacity="0.2" x="66" y="52" width="28" height="3" fill="#58A8F7"/>
<rect opacity="0.2" x="73" y="58" width="14" height="3" fill="#58A8F7"/>
<rect opacity="0.2" x="66" y="27" width="28" height="22" rx="2" fill="#58A8F7"/>
<mask id="5o3bzlg6dy-mask0" mask-type="alpha" maskUnits="userSpaceOnUse" x="66" y="27" width="28" height="22">
<rect x="66" y="27" width="28" height="22" rx="2" fill="white"/>
</mask>
<g mask="url(#5o3bzlg6dy-mask0)">
<path opacity="0.2" fill-rule="evenodd" clip-rule="evenodd" d="M90 39C95.4059 39 98.7327 43.2697 104 49C99.703 49 81.3071 49 76 49C80.5743 44.2809 84.5941 39 90 39Z" fill="#58A8F7"/>
<path opacity="0.2" fill-rule="evenodd" clip-rule="evenodd" d="M70 37C75.7062 37 79.8981 42.7219 85 49C78.306 49 62.0952 49 56 49C60.9281 42.7219 64.2938 37 70 37Z" fill="#0D87FF"/>
<path opacity="0.5" fill-rule="evenodd" clip-rule="evenodd" d="M81 37C82.6569 37 84 35.6569 84 34C84 32.3431 82.6569 31 81 31C79.3431 31 78 32.3431 78 34C78 35.6569 79.3431 37 81 37Z" fill="#58A8F7"/>
</g>
<rect x="64" y="68" width="32" height="38" rx="3" fill="white"/>
<rect opacity="0.2" x="66" y="95" width="28" height="3" fill="#58A8F7"/>
<rect opacity="0.2" x="73" y="101" width="14" height="3" fill="#58A8F7"/>
<rect opacity="0.2" x="66" y="70" width="28" height="22" rx="2" fill="#58A8F7"/>
<mask id="5o3bzlg6dy-mask1" mask-type="alpha" maskUnits="userSpaceOnUse" x="66" y="70" width="28" height="22">
<rect x="66" y="70" width="28" height="22" rx="2" fill="white"/>
</mask>
<g mask="url(#5o3bzlg6dy-mask1)">
<path opacity="0.2" fill-rule="evenodd" clip-rule="evenodd" d="M90 82C95.4059 82 98.7327 86.2697 104 92C99.703 92 81.3071 92 76 92C80.5743 87.2809 84.5941 82 90 82Z" fill="#58A8F7"/>
<path opacity="0.2" fill-rule="evenodd" clip-rule="evenodd" d="M70 80C75.7062 80 79.8981 85.7219 85 92C78.306 92 62.0952 92 56 92C60.9281 85.7219 64.2938 80 70 80Z" fill="#0D87FF"/>
<path opacity="0.5" fill-rule="evenodd" clip-rule="evenodd" d="M81 80C82.6569 80 84 78.6569 84 77C84 75.3431 82.6569 74 81 74C79.3431 74 78 75.3431 78 77C78 78.6569 79.3431 80 81 80Z" fill="#58A8F7"/>
</g>
<rect x="101" y="25" width="32" height="38" rx="3" fill="white"/>
<rect opacity="0.2" x="103" y="52" width="28" height="3" fill="#58A8F7"/>
<rect opacity="0.2" x="110" y="58" width="14" height="3" fill="#58A8F7"/>
<rect opacity="0.2" x="103" y="27" width="28" height="22" rx="2" fill="#58A8F7"/>
<mask id="5o3bzlg6dy-mask2" mask-type="alpha" maskUnits="userSpaceOnUse" x="103" y="27" width="28" height="22">
<rect x="103" y="27" width="28" height="22" rx="2" fill="white"/>
</mask>
<g mask="url(#5o3bzlg6dy-mask2)">
<path opacity="0.2" fill-rule="evenodd" clip-rule="evenodd" d="M127 39C132.406 39 135.733 43.2697 141 49C136.703 49 118.307 49 113 49C117.574 44.2809 121.594 39 127 39Z" fill="#58A8F7"/>
<path opacity="0.2" fill-rule="evenodd" clip-rule="evenodd" d="M107 37C112.706 37 116.898 42.7219 122 49C115.306 49 99.0952 49 93 49C97.9281 42.7219 101.294 37 107 37Z" fill="#0D87FF"/>
<path opacity="0.5" fill-rule="evenodd" clip-rule="evenodd" d="M118 37C119.657 37 121 35.6569 121 34C121 32.3431 119.657 31 118 31C116.343 31 115 32.3431 115 34C115 35.6569 116.343 37 118 37Z" fill="#58A8F7"/>
</g>
<rect x="101" y="68" width="32" height="38" rx="3" fill="white"/>
<rect opacity="0.2" x="103" y="95" width="28" height="3" fill="#58A8F7"/>
<rect opacity="0.2" x="110" y="101" width="14" height="3" fill="#58A8F7"/>
<rect opacity="0.2" x="103" y="70" width="28" height="22" rx="2" fill="#58A8F7"/>
<mask id="5o3bzlg6dy-mask3" mask-type="alpha" maskUnits="userSpaceOnUse" x="103" y="70" width="28" height="22">
<rect x="103" y="70" width="28" height="22" rx="2" fill="white"/>
</mask>
<g mask="url(#5o3bzlg6dy-mask3)">
<path opacity="0.2" fill-rule="evenodd" clip-rule="evenodd" d="M127 82C132.406 82 135.733 86.2697 141 92C136.703 92 118.307 92 113 92C117.574 87.2809 121.594 82 127 82Z" fill="#58A8F7"/>
<path opacity="0.2" fill-rule="evenodd" clip-rule="evenodd" d="M107 80C112.706 80 116.898 85.7219 122 92C115.306 92 99.0952 92 93 92C97.9281 85.7219 101.294 80 107 80Z" fill="#0D87FF"/>
<path opacity="0.5" fill-rule="evenodd" clip-rule="evenodd" d="M118 80C119.657 80 121 78.6569 121 77C121 75.3431 119.657 74 118 74C116.343 74 115 75.3431 115 77C115 78.6569 116.343 80 118 80Z" fill="#58A8F7"/>
</g>
<rect x="138" y="25" width="32" height="38" rx="3" fill="white"/>
<rect opacity="0.2" x="140" y="52" width="28" height="3" fill="#58A8F7"/>
<rect opacity="0.2" x="147" y="58" width="14" height="3" fill="#58A8F7"/>
<rect opacity="0.2" x="140" y="27" width="28" height="22" rx="2" fill="#58A8F7"/>
<mask id="5o3bzlg6dy-mask4" mask-type="alpha" maskUnits="userSpaceOnUse" x="140" y="27" width="28" height="22">
<rect x="140" y="27" width="28" height="22" rx="2" fill="white"/>
</mask>
<g mask="url(#5o3bzlg6dy-mask4)">
<path opacity="0.2" fill-rule="evenodd" clip-rule="evenodd" d="M164 39C169.406 39 172.733 43.2697 178 49C173.703 49 155.307 49 150 49C154.574 44.2809 158.594 39 164 39Z" fill="#58A8F7"/>
<path opacity="0.2" fill-rule="evenodd" clip-rule="evenodd" d="M144 37C149.706 37 153.898 42.7219 159 49C152.306 49 136.095 49 130 49C134.928 42.7219 138.294 37 144 37Z" fill="#0D87FF"/>
<path opacity="0.5" fill-rule="evenodd" clip-rule="evenodd" d="M155 37C156.657 37 158 35.6569 158 34C158 32.3431 156.657 31 155 31C153.343 31 152 32.3431 152 34C152 35.6569 153.343 37 155 37Z" fill="#58A8F7"/>
</g>
<rect x="138" y="68" width="32" height="38" rx="3" fill="white"/>
<rect opacity="0.2" x="140" y="95" width="28" height="3" fill="#58A8F7"/>
<rect opacity="0.2" x="147" y="101" width="14" height="3" fill="#58A8F7"/>
<rect opacity="0.2" x="140" y="70" width="28" height="22" rx="2" fill="#58A8F7"/>
<mask id="5o3bzlg6dy-mask5" mask-type="alpha" maskUnits="userSpaceOnUse" x="140" y="70" width="28" height="22">
<rect x="140" y="70" width="28" height="22" rx="2" fill="white"/>
</mask>
<g mask="url(#5o3bzlg6dy-mask5)">
<path opacity="0.2" fill-rule="evenodd" clip-rule="evenodd" d="M164 82C169.406 82 172.733 86.2697 178 92C173.703 92 155.307 92 150 92C154.574 87.2809 158.594 82 164 82Z" fill="#58A8F7"/>
<path opacity="0.2" fill-rule="evenodd" clip-rule="evenodd" d="M144 80C149.706 80 153.898 85.7219 159 92C152.306 92 136.095 92 130 92C134.928 85.7219 138.294 80 144 80Z" fill="#0D87FF"/>
<path opacity="0.5" fill-rule="evenodd" clip-rule="evenodd" d="M155 80C156.657 80 158 78.6569 158 77C158 75.3431 156.657 74 155 74C153.343 74 152 75.3431 152 77C152 78.6569 153.343 80 155 80Z" fill="#58A8F7"/>
</g>
<rect x="64" y="111" width="32" height="38" rx="3" fill="white"/>
<rect opacity="0.2" x="66" y="138" width="28" height="3" fill="#58A8F7"/>
<rect opacity="0.2" x="73" y="144" width="14" height="3" fill="#58A8F7"/>
<rect opacity="0.2" x="66" y="113" width="28" height="22" rx="2" fill="#58A8F7"/>
<mask id="5o3bzlg6dy-mask6" mask-type="alpha" maskUnits="userSpaceOnUse" x="66" y="113" width="28" height="22">
<rect x="66" y="113" width="28" height="22" rx="2" fill="white"/>
</mask>
<g mask="url(#5o3bzlg6dy-mask6)">
<path opacity="0.2" fill-rule="evenodd" clip-rule="evenodd" d="M90 125C95.4059 125 98.7327 129.27 104 135C99.703 135 81.3071 135 76 135C80.5743 130.281 84.5941 125 90 125Z" fill="#58A8F7"/>
<path opacity="0.2" fill-rule="evenodd" clip-rule="evenodd" d="M70 123C75.7062 123 79.8981 128.722 85 135C78.306 135 62.0952 135 56 135C60.9281 128.722 64.2938 123 70 123Z" fill="#0D87FF"/>
<path opacity="0.5" fill-rule="evenodd" clip-rule="evenodd" d="M81 123C82.6569 123 84 121.657 84 120C84 118.343 82.6569 117 81 117C79.3431 117 78 118.343 78 120C78 121.657 79.3431 123 81 123Z" fill="#58A8F7"/>
</g>
<rect x="101" y="111" width="32" height="38" rx="3" fill="white"/>
<rect opacity="0.2" x="103" y="138" width="28" height="3" fill="#58A8F7"/>
<rect opacity="0.2" x="110" y="144" width="14" height="3" fill="#58A8F7"/>
<rect opacity="0.2" x="103" y="113" width="28" height="22" rx="2" fill="#58A8F7"/>
<mask id="5o3bzlg6dy-mask7" mask-type="alpha" maskUnits="userSpaceOnUse" x="103" y="113" width="28" height="22">
<rect x="103" y="113" width="28" height="22" rx="2" fill="white"/>
</mask>
<g mask="url(#5o3bzlg6dy-mask7)">
<path opacity="0.2" fill-rule="evenodd" clip-rule="evenodd" d="M127 125C132.406 125 135.733 129.27 141 135C136.703 135 118.307 135 113 135C117.574 130.281 121.594 125 127 125Z" fill="#58A8F7"/>
<path opacity="0.2" fill-rule="evenodd" clip-rule="evenodd" d="M107 123C112.706 123 116.898 128.722 122 135C115.306 135 99.0952 135 93 135C97.9281 128.722 101.294 123 107 123Z" fill="#0D87FF"/>
<path opacity="0.5" fill-rule="evenodd" clip-rule="evenodd" d="M118 123C119.657 123 121 121.657 121 120C121 118.343 119.657 117 118 117C116.343 117 115 118.343 115 120C115 121.657 116.343 123 118 123Z" fill="#58A8F7"/>
</g>
<rect x="138" y="111" width="32" height="38" rx="3" fill="white"/>
<rect opacity="0.2" x="140" y="138" width="28" height="3" fill="#58A8F7"/>
<rect opacity="0.2" x="147" y="144" width="14" height="3" fill="#58A8F7"/>
<rect opacity="0.2" x="140" y="113" width="28" height="22" rx="2" fill="#58A8F7"/>
<mask id="5o3bzlg6dy-mask8" mask-type="alpha" maskUnits="userSpaceOnUse" x="140" y="113" width="28" height="22">
<rect x="140" y="113" width="28" height="22" rx="2" fill="white"/>
</mask>
<g mask="url(#5o3bzlg6dy-mask8)">
<path opacity="0.2" fill-rule="evenodd" clip-rule="evenodd" d="M164 125C169.406 125 172.733 129.27 178 135C173.703 135 155.307 135 150 135C154.574 130.281 158.594 125 164 125Z" fill="#58A8F7"/>
<path opacity="0.2" fill-rule="evenodd" clip-rule="evenodd" d="M144 123C149.706 123 153.898 128.722 159 135C152.306 135 136.095 135 130 135C134.928 128.722 138.294 123 144 123Z" fill="#0D87FF"/>
<path opacity="0.5" fill-rule="evenodd" clip-rule="evenodd" d="M155 123C156.657 123 158 121.657 158 120C158 118.343 156.657 117 155 117C153.343 117 152 118.343 152 120C152 121.657 153.343 123 155 123Z" fill="#58A8F7"/>
</g>
<rect opacity="0.2" x="64" y="162" width="12" height="11.9999" rx="2" fill="#58A8F7"/>
<rect opacity="0.2" x="83" y="162" width="12" height="11.9999" rx="2" fill="#58A8F7"/>
<rect opacity="0.2" x="102" y="162" width="12" height="11.9999" rx="2" fill="#58A8F7"/>
<rect opacity="0.2" x="121" y="162" width="12" height="11.9999" rx="2" fill="#58A8F7"/>
<rect opacity="0.2" x="140" y="162" width="12" height="11.9999" rx="2" fill="#58A8F7"/>
<rect opacity="0.2" x="158" y="162" width="12" height="11.9999" rx="2" fill="#58A8F7"/>
<rect opacity="0.2" x="10" y="25" width="49" height="149" rx="3" fill="#58A8F7"/>
<rect opacity="0.5" x="16" y="154" width="37" height="11" rx="2" fill="#0D87FF"/>
<path opacity="0.2" fill-rule="evenodd" clip-rule="evenodd" d="M24 41L32 50V60L37 57V50L45 41H24Z" fill="#58A8F7"/>
<rect opacity="0.5" x="16" y="72" width="37" height="11" rx="2" fill="#58A8F7"/>
<rect x="17" y="73" width="35" height="9" rx="1" fill="white"/>
<rect opacity="0.2" x="18.5965" y="76" width="20.7719" height="3" fill="#58A8F7"/>
<path fill-rule="evenodd" clip-rule="evenodd" d="M45.5 79L43 76H48L45.5 79Z" fill="#0D87FF"/>
<rect opacity="0.5" x="16" y="88" width="37" height="11" rx="2" fill="#58A8F7"/>
<rect x="17" y="89" width="35" height="9" rx="1" fill="white"/>
<rect opacity="0.2" x="18.5965" y="92" width="20.7719" height="3" fill="#58A8F7"/>
<path fill-rule="evenodd" clip-rule="evenodd" d="M45.5 95L43 92H48L45.5 95Z" fill="#0D87FF"/>
<rect opacity="0.5" x="16" y="104" width="37" height="11" rx="2" fill="#58A8F7"/>
<rect x="17" y="105" width="35" height="9" rx="1" fill="white"/>
<rect opacity="0.2" x="18.5965" y="108" width="20.7719" height="3" fill="#58A8F7"/>
<path fill-rule="evenodd" clip-rule="evenodd" d="M45.5 111L43 108H48L45.5 111Z" fill="#0D87FF"/>
<rect opacity="0.5" x="16" y="120" width="37" height="11" rx="2" fill="#58A8F7"/>
<rect x="17" y="121" width="35" height="9" rx="1" fill="white"/>
<rect opacity="0.2" x="18.5965" y="124" width="20.7719" height="3" fill="#58A8F7"/>
<path fill-rule="evenodd" clip-rule="evenodd" d="M45.5 127L43 124H48L45.5 127Z" fill="#0D87FF"/>
</svg></g></g></g><rect x="-1" y="-1" rx="3" ry="3" width="182" height="230" fill="none" stroke="#A2CEF9" stroke-width="2"/><g transform="translate(0,206)"><g><text x="90" y="4" text-anchor="middle" font-family="Roboto,sans-serif" font-size="14px" fill="#52565f">Catalogue Sneakers</text></g></g></g><g transform="translate(210, 306)"><rect x="0" y="0" rx="2" ry="2" width="180" height="228" fill="#ffffff"/><g><g><g transform="translate( 0, 0 )"><svg xmlns="http://www.w3.org/2000/svg" xmlns:xlink="http://www.w3.org/1999/xlink" width="180" height="185" viewBox="0 0 180 185">
  <defs>
    <rect id="ghwyf48533-article-a" width="160" height="82" rx="2"/>
  </defs>
  <g fill="none" fill-rule="evenodd">
    <path fill="#58A8F7" d="M0,2.99971296 C0,1.34301724 1.34537458,0 2.99263929,0 L177.007361,0 C178.66015,0 180,1.34382565 180,2.99971296 L180,185 L0,185 L0,2.99971296 Z" opacity=".097"/>
    <g transform="translate(10 26)">
      <rect width="160" height="82" fill="#58A8F7" opacity=".197" rx="2"/>
      <mask id="ghwyf48533-article-b" fill="#fff">
        <use xlink:href="#ghwyf48533-article-a"/>
      </mask>
      <use fill="#58A8F7" opacity="0" xlink:href="#ghwyf48533-article-a"/>
      <path fill="#58A8F7" d="M123.544554,38 C147.292079,38 158.861386,56.7865169 182,82 C163.123762,82 82.3134379,82 59,82 C79.0940594,61.2359551 99.7970297,38 123.544554,38 Z" mask="url(#ghwyf48533-article-b)" opacity=".197"/>
      <path fill="#0D87FF" d="M44.5,31 C69.8826643,31 86.3055556,55.3181901 109,82 C79.2231422,82 7.11330049,82 -20,82 C1.92139189,55.3181901 19.1173357,31 44.5,31 Z" mask="url(#ghwyf48533-article-b)" opacity=".198"/>
      <circle cx="87" cy="22" r="9" fill="#58A8F7" mask="url(#ghwyf48533-article-b)" opacity=".499"/>
    </g>
    <path fill="#58A8F7" d="M0,3.00947762 C0,1.34738902 1.34537458,0 2.99263929,0 L177.007361,0 C178.66015,0 180,1.33663106 180,3.00947762 L180,16 L0,16 L0,3.00947762 Z" opacity=".197"/>
    <path fill="#0D87FF" d="M2.5,5 C1.11928813,5 0,3.88071187 0,2.5 C0,1.11928813 1.11928813,0 2.5,0 C3.88071187,0 5,1.11928813 5,2.5 C5,3.88071187 3.88071187,5 2.5,5 Z M10.5,5 C9.11928813,5 8,3.88071187 8,2.5 C8,1.11928813 9.11928813,0 10.5,0 C11.8807119,0 13,1.11928813 13,2.5 C13,3.88071187 11.8807119,5 10.5,5 Z M18.5,5 C17.1192881,5 16,3.88071187 16,2.5 C16,1.11928813 17.1192881,0 18.5,0 C19.8807119,0 21,1.11928813 21,2.5 C21,3.88071187 19.8807119,5 18.5,5 Z" opacity=".499" transform="translate(5 6)"/>
    <polygon fill="#58A8F7" points="0 0 12 0 12 3 0 3" opacity=".197" transform="translate(84 118)"/>
    <polygon fill="#58A8F7" points="0 0 50 0 50 8 0 8" opacity=".499" transform="translate(65 124)"/>
    <polygon fill="#58A8F7" points="0 0 126 0 126 3 0 3" opacity=".197" transform="translate(27 151)"/>
    <polygon fill="#58A8F7" points="0 0 126 0 126 3 0 3" opacity=".197" transform="translate(27 144)"/>
    <polygon fill="#58A8F7" points="0 0 126 0 126 3 0 3" opacity=".197" transform="translate(27 137)"/>
    <polygon fill="#58A8F7" points="0 0 126 0 126 3 0 3" opacity=".197" transform="translate(27 158)"/>
    <polygon fill="#58A8F7" points="0 0 126 0 126 3 0 3" opacity=".197" transform="translate(27 165)"/>
    <polygon fill="#58A8F7" points="0 0 76 0 76 3 0 3" opacity=".197" transform="translate(52 172)"/>
  </g>
</svg></g></g></g><rect x="-1" y="-1" rx="3" ry="3" width="182" height="230" fill="none" stroke="#A2CEF9" stroke-width="2"/><g transform="translate(0,206)"><g><text x="90" y="4" text-anchor="middle" font-family="Roboto,sans-serif" font-size="14px" fill="#52565f">L'histoire de la Sneakers</text></g></g></g><g transform="translate(410, 306)"><rect x="0" y="0" rx="2" ry="2" width="180" height="228" fill="#ffffff"/><g><g><g transform="translate( 0, 0 )"><svg xmlns="http://www.w3.org/2000/svg" xmlns:xlink="http://www.w3.org/1999/xlink" width="180" height="185" viewBox="0 0 180 185">
  <defs>
    <rect id="ztasbz8wwss-main-a" width="160" height="82" rx="2"/>
  </defs>
  <g fill="none" fill-rule="evenodd">
    <path fill="#58A8F7" d="M0,2.99971296 C0,1.34301724 1.34537458,0 2.99263929,0 L177.007361,0 C178.66015,0 180,1.34382565 180,2.99971296 L180,185 L0,185 L0,2.99971296 Z" opacity=".097"/>
    <g transform="translate(10 26)">
      <rect width="160" height="82" fill="#58A8F7" opacity=".197" rx="2"/>
      <mask id="ztasbz8wwss-main-b" fill="#fff">
        <use xlink:href="#ztasbz8wwss-main-a"/>
      </mask>
      <use fill="#58A8F7" opacity="0" xlink:href="#ztasbz8wwss-main-a"/>
      <path fill="#58A8F7" d="M123.544554,38 C147.292079,38 158.861386,56.7865169 182,82 C163.123762,82 82.3134379,82 59,82 C79.0940594,61.2359551 99.7970297,38 123.544554,38 Z" mask="url(#ztasbz8wwss-main-b)" opacity=".197"/>
      <path fill="#0D87FF" d="M44.5,31 C69.8826643,31 86.3055556,55.3181901 109,82 C79.2231422,82 7.11330049,82 -20,82 C1.92139189,55.3181901 19.1173357,31 44.5,31 Z" mask="url(#ztasbz8wwss-main-b)" opacity=".198"/>
      <circle cx="87" cy="22" r="9" fill="#58A8F7" mask="url(#ztasbz8wwss-main-b)" opacity=".499"/>
    </g>
    <g transform="translate(26 118)">
      <circle cx="7.5" cy="7.5" r="7.5" fill="#0D87FF" opacity=".499"/>
      <polygon fill="#FFF" points="7.5 9.75 4.855 11.141 5.36 8.195 3.22 6.109 6.177 5.68 7.5 3 8.823 5.68 11.78 6.109 9.64 8.195 10.145 11.141"/>
    </g>
    <g transform="translate(140 118)">
      <circle cx="7.5" cy="7.5" r="7.5" fill="#0D87FF" opacity=".499"/>
      <polygon fill="#FFF" points="7.5 9.75 4.855 11.141 5.36 8.195 3.22 6.109 6.177 5.68 7.5 3 8.823 5.68 11.78 6.109 9.64 8.195 10.145 11.141"/>
    </g>
    <g transform="translate(83 118)">
      <circle cx="7.5" cy="7.5" r="7.5" fill="#0D87FF" opacity=".499"/>
      <polygon fill="#FFF" points="7.5 9.75 4.855 11.141 5.36 8.195 3.22 6.109 6.177 5.68 7.5 3 8.823 5.68 11.78 6.109 9.64 8.195 10.145 11.141"/>
    </g>
    <g fill="#58A8F7" transform="translate(10 139)">
      <polygon points="0 0 26 0 26 5 0 5" opacity=".499" transform="translate(10)"/>
      <polygon points="0 0 46 0 46 3 0 3" opacity=".197" transform="translate(0 17)"/>
      <polygon points="0 0 46 0 46 3 0 3" opacity=".197" transform="translate(0 10)"/>
      <polygon points="0 0 26 0 26 3 0 3" opacity=".197" transform="translate(10 24)"/>
    </g>
    <g fill="#58A8F7" transform="translate(124 139)">
      <polygon points="0 0 26 0 26 5 0 5" opacity=".499" transform="translate(10)"/>
      <polygon points="0 0 46 0 46 3 0 3" opacity=".197" transform="translate(0 17)"/>
      <polygon points="0 0 46 0 46 3 0 3" opacity=".197" transform="translate(0 10)"/>
      <polygon points="0 0 26 0 26 3 0 3" opacity=".197" transform="translate(10 24)"/>
    </g>
    <g fill="#58A8F7" transform="translate(67 139)">
      <polygon points="0 0 26 0 26 5 0 5" opacity=".499" transform="translate(10)"/>
      <polygon points="0 0 46 0 46 3 0 3" opacity=".197" transform="translate(0 17)"/>
      <polygon points="0 0 46 0 46 3 0 3" opacity=".197" transform="translate(0 10)"/>
      <polygon points="0 0 26 0 26 3 0 3" opacity=".197" transform="translate(10 24)"/>
    </g>
    <path fill="#58A8F7" d="M0,3.00947762 C0,1.34738902 1.34537458,0 2.99263929,0 L177.007361,0 C178.66015,0 180,1.33663106 180,3.00947762 L180,16 L0,16 L0,3.00947762 Z" opacity=".197"/>
    <path fill="#0D87FF" d="M2.5,5 C1.11928813,5 0,3.88071187 0,2.5 C0,1.11928813 1.11928813,0 2.5,0 C3.88071187,0 5,1.11928813 5,2.5 C5,3.88071187 3.88071187,5 2.5,5 Z M10.5,5 C9.11928813,5 8,3.88071187 8,2.5 C8,1.11928813 9.11928813,0 10.5,0 C11.8807119,0 13,1.11928813 13,2.5 C13,3.88071187 11.8807119,5 10.5,5 Z M18.5,5 C17.1192881,5 16,3.88071187 16,2.5 C16,1.11928813 17.1192881,0 18.5,0 C19.8807119,0 21,1.11928813 21,2.5 C21,3.88071187 19.8807119,5 18.5,5 Z" opacity=".499" transform="translate(5 6)"/>
  </g>
</svg></g></g></g><rect x="-1" y="-1" rx="3" ry="3" width="182" height="230" fill="none" stroke="#A2CEF9" stroke-width="2"/><g transform="translate(0,206)"><g><text x="90" y="-5" text-anchor="middle" font-family="Roboto,sans-serif" font-size="14px" fill="#52565f">Les coups de cœur de</text><text x="90" y="13" text-anchor="middle" font-family="Roboto,sans-serif" font-size="14px" fill="#52565f">l'équipe</text></g></g></g><g transform="translate(610, 306)"><rect x="0" y="0" rx="2" ry="2" width="180" height="228" fill="#ffffff"/><g><g><g transform="translate( 0, 0 )"><svg xmlns="http://www.w3.org/2000/svg" xmlns:xlink="http://www.w3.org/1999/xlink" width="180" height="185" viewBox="0 0 180 185">
  <defs>
    <rect id="bgzmg64ou7-main-a" width="160" height="82" rx="2"/>
  </defs>
  <g fill="none" fill-rule="evenodd">
    <path fill="#58A8F7" d="M0,2.99971296 C0,1.34301724 1.34537458,0 2.99263929,0 L177.007361,0 C178.66015,0 180,1.34382565 180,2.99971296 L180,185 L0,185 L0,2.99971296 Z" opacity=".097"/>
    <g transform="translate(10 26)">
      <rect width="160" height="82" fill="#58A8F7" opacity=".197" rx="2"/>
      <mask id="bgzmg64ou7-main-b" fill="#fff">
        <use xlink:href="#bgzmg64ou7-main-a"/>
      </mask>
      <use fill="#58A8F7" opacity="0" xlink:href="#bgzmg64ou7-main-a"/>
      <path fill="#58A8F7" d="M123.544554,38 C147.292079,38 158.861386,56.7865169 182,82 C163.123762,82 82.3134379,82 59,82 C79.0940594,61.2359551 99.7970297,38 123.544554,38 Z" mask="url(#bgzmg64ou7-main-b)" opacity=".197"/>
      <path fill="#0D87FF" d="M44.5,31 C69.8826643,31 86.3055556,55.3181901 109,82 C79.2231422,82 7.11330049,82 -20,82 C1.92139189,55.3181901 19.1173357,31 44.5,31 Z" mask="url(#bgzmg64ou7-main-b)" opacity=".198"/>
      <circle cx="87" cy="22" r="9" fill="#58A8F7" mask="url(#bgzmg64ou7-main-b)" opacity=".499"/>
    </g>
    <g transform="translate(26 118)">
      <circle cx="7.5" cy="7.5" r="7.5" fill="#0D87FF" opacity=".499"/>
      <polygon fill="#FFF" points="7.5 9.75 4.855 11.141 5.36 8.195 3.22 6.109 6.177 5.68 7.5 3 8.823 5.68 11.78 6.109 9.64 8.195 10.145 11.141"/>
    </g>
    <g transform="translate(140 118)">
      <circle cx="7.5" cy="7.5" r="7.5" fill="#0D87FF" opacity=".499"/>
      <polygon fill="#FFF" points="7.5 9.75 4.855 11.141 5.36 8.195 3.22 6.109 6.177 5.68 7.5 3 8.823 5.68 11.78 6.109 9.64 8.195 10.145 11.141"/>
    </g>
    <g transform="translate(83 118)">
      <circle cx="7.5" cy="7.5" r="7.5" fill="#0D87FF" opacity=".499"/>
      <polygon fill="#FFF" points="7.5 9.75 4.855 11.141 5.36 8.195 3.22 6.109 6.177 5.68 7.5 3 8.823 5.68 11.78 6.109 9.64 8.195 10.145 11.141"/>
    </g>
    <g fill="#58A8F7" transform="translate(10 139)">
      <polygon points="0 0 26 0 26 5 0 5" opacity=".499" transform="translate(10)"/>
      <polygon points="0 0 46 0 46 3 0 3" opacity=".197" transform="translate(0 17)"/>
      <polygon points="0 0 46 0 46 3 0 3" opacity=".197" transform="translate(0 10)"/>
      <polygon points="0 0 26 0 26 3 0 3" opacity=".197" transform="translate(10 24)"/>
    </g>
    <g fill="#58A8F7" transform="translate(124 139)">
      <polygon points="0 0 26 0 26 5 0 5" opacity=".499" transform="translate(10)"/>
      <polygon points="0 0 46 0 46 3 0 3" opacity=".197" transform="translate(0 17)"/>
      <polygon points="0 0 46 0 46 3 0 3" opacity=".197" transform="translate(0 10)"/>
      <polygon points="0 0 26 0 26 3 0 3" opacity=".197" transform="translate(10 24)"/>
    </g>
    <g fill="#58A8F7" transform="translate(67 139)">
      <polygon points="0 0 26 0 26 5 0 5" opacity=".499" transform="translate(10)"/>
      <polygon points="0 0 46 0 46 3 0 3" opacity=".197" transform="translate(0 17)"/>
      <polygon points="0 0 46 0 46 3 0 3" opacity=".197" transform="translate(0 10)"/>
      <polygon points="0 0 26 0 26 3 0 3" opacity=".197" transform="translate(10 24)"/>
    </g>
    <path fill="#58A8F7" d="M0,3.00947762 C0,1.34738902 1.34537458,0 2.99263929,0 L177.007361,0 C178.66015,0 180,1.33663106 180,3.00947762 L180,16 L0,16 L0,3.00947762 Z" opacity=".197"/>
    <path fill="#0D87FF" d="M2.5,5 C1.11928813,5 0,3.88071187 0,2.5 C0,1.11928813 1.11928813,0 2.5,0 C3.88071187,0 5,1.11928813 5,2.5 C5,3.88071187 3.88071187,5 2.5,5 Z M10.5,5 C9.11928813,5 8,3.88071187 8,2.5 C8,1.11928813 9.11928813,0 10.5,0 C11.8807119,0 13,1.11928813 13,2.5 C13,3.88071187 11.8807119,5 10.5,5 Z M18.5,5 C17.1192881,5 16,3.88071187 16,2.5 C16,1.11928813 17.1192881,0 18.5,0 C19.8807119,0 21,1.11928813 21,2.5 C21,3.88071187 19.8807119,5 18.5,5 Z" opacity=".499" transform="translate(5 6)"/>
  </g>
</svg></g></g></g><rect x="-1" y="-1" rx="3" ry="3" width="182" height="230" fill="none" stroke="#A2CEF9" stroke-width="2"/><g transform="translate(0,206)"><g><text x="90" y="4" text-anchor="middle" font-family="Roboto,sans-serif" font-size="14px" fill="#52565f">Prochains Drops</text></g></g></g><g transform="translate(810, 306)"><rect x="0" y="0" rx="2" ry="2" width="180" height="228" fill="#ffffff"/><g><g><g transform="translate( 0, 0 )"><svg xmlns="http://www.w3.org/2000/svg" xmlns:xlink="http://www.w3.org/1999/xlink" width="180" height="185" viewBox="0 0 180 185">
  <defs>
    <rect id="axj30ed4t17-article-a" width="160" height="82" rx="2"/>
  </defs>
  <g fill="none" fill-rule="evenodd">
    <path fill="#58A8F7" d="M0,2.99971296 C0,1.34301724 1.34537458,0 2.99263929,0 L177.007361,0 C178.66015,0 180,1.34382565 180,2.99971296 L180,185 L0,185 L0,2.99971296 Z" opacity=".097"/>
    <g transform="translate(10 26)">
      <rect width="160" height="82" fill="#58A8F7" opacity=".197" rx="2"/>
      <mask id="axj30ed4t17-article-b" fill="#fff">
        <use xlink:href="#axj30ed4t17-article-a"/>
      </mask>
      <use fill="#58A8F7" opacity="0" xlink:href="#axj30ed4t17-article-a"/>
      <path fill="#58A8F7" d="M123.544554,38 C147.292079,38 158.861386,56.7865169 182,82 C163.123762,82 82.3134379,82 59,82 C79.0940594,61.2359551 99.7970297,38 123.544554,38 Z" mask="url(#axj30ed4t17-article-b)" opacity=".197"/>
      <path fill="#0D87FF" d="M44.5,31 C69.8826643,31 86.3055556,55.3181901 109,82 C79.2231422,82 7.11330049,82 -20,82 C1.92139189,55.3181901 19.1173357,31 44.5,31 Z" mask="url(#axj30ed4t17-article-b)" opacity=".198"/>
      <circle cx="87" cy="22" r="9" fill="#58A8F7" mask="url(#axj30ed4t17-article-b)" opacity=".499"/>
    </g>
    <path fill="#58A8F7" d="M0,3.00947762 C0,1.34738902 1.34537458,0 2.99263929,0 L177.007361,0 C178.66015,0 180,1.33663106 180,3.00947762 L180,16 L0,16 L0,3.00947762 Z" opacity=".197"/>
    <path fill="#0D87FF" d="M2.5,5 C1.11928813,5 0,3.88071187 0,2.5 C0,1.11928813 1.11928813,0 2.5,0 C3.88071187,0 5,1.11928813 5,2.5 C5,3.88071187 3.88071187,5 2.5,5 Z M10.5,5 C9.11928813,5 8,3.88071187 8,2.5 C8,1.11928813 9.11928813,0 10.5,0 C11.8807119,0 13,1.11928813 13,2.5 C13,3.88071187 11.8807119,5 10.5,5 Z M18.5,5 C17.1192881,5 16,3.88071187 16,2.5 C16,1.11928813 17.1192881,0 18.5,0 C19.8807119,0 21,1.11928813 21,2.5 C21,3.88071187 19.8807119,5 18.5,5 Z" opacity=".499" transform="translate(5 6)"/>
    <polygon fill="#58A8F7" points="0 0 12 0 12 3 0 3" opacity=".197" transform="translate(84 118)"/>
    <polygon fill="#58A8F7" points="0 0 50 0 50 8 0 8" opacity=".499" transform="translate(65 124)"/>
    <polygon fill="#58A8F7" points="0 0 126 0 126 3 0 3" opacity=".197" transform="translate(27 151)"/>
    <polygon fill="#58A8F7" points="0 0 126 0 126 3 0 3" opacity=".197" transform="translate(27 144)"/>
    <polygon fill="#58A8F7" points="0 0 126 0 126 3 0 3" opacity=".197" transform="translate(27 137)"/>
    <polygon fill="#58A8F7" points="0 0 126 0 126 3 0 3" opacity=".197" transform="translate(27 158)"/>
    <polygon fill="#58A8F7" points="0 0 126 0 126 3 0 3" opacity=".197" transform="translate(27 165)"/>
    <polygon fill="#58A8F7" points="0 0 76 0 76 3 0 3" opacity=".197" transform="translate(52 172)"/>
  </g>
</svg></g></g></g><rect x="-1" y="-1" rx="3" ry="3" width="182" height="230" fill="none" stroke="#A2CEF9" stroke-width="2"/><g transform="translate(0,206)"><g><text x="90" y="4" text-anchor="middle" font-family="Roboto,sans-serif" font-size="14px" fill="#52565f">Qui sommes nous ?</text></g></g></g><g transform="translate(1010, 866)"><rect x="0" y="0" rx="2" ry="2" width="180" height="228" fill="#ffffff"/><g><g><g transform="translate( 0, 0 )"><svg xmlns="http://www.w3.org/2000/svg" width="180" height="184" viewBox="0 0 180 184" fill="none">
<path d="M0 3C0 1.34315 1.34315 0 3 0H177C178.657 0 180 1.34315 180 3V184H0V3Z" fill="#EFF7FF"/>
<path opacity="0.2" d="M0 3C0 1.34315 1.34315 0 3 0H177C178.657 0 180 1.34315 180 3V15H0V3Z" fill="#58A8F7"/>
<path opacity="0.5" fill-rule="evenodd" clip-rule="evenodd" d="M7.5 10C8.88071 10 10 8.88071 10 7.5C10 6.11929 8.88071 5 7.5 5C6.11929 5 5 6.11929 5 7.5C5 8.88071 6.11929 10 7.5 10ZM15.5 10C16.8807 10 18 8.88071 18 7.5C18 6.11929 16.8807 5 15.5 5C14.1193 5 13 6.11929 13 7.5C13 8.88071 14.1193 10 15.5 10ZM26 7.5C26 8.88071 24.8807 10 23.5 10C22.1193 10 21 8.88071 21 7.5C21 6.11929 22.1193 5 23.5 5C24.8807 5 26 6.11929 26 7.5Z" fill="#0D87FF"/>
<rect x="64" y="25" width="32" height="38" rx="3" fill="white"/>
<rect opacity="0.2" x="66" y="52" width="28" height="3" fill="#58A8F7"/>
<rect opacity="0.2" x="73" y="58" width="14" height="3" fill="#58A8F7"/>
<rect opacity="0.2" x="66" y="27" width="28" height="22" rx="2" fill="#58A8F7"/>
<mask id="tqe9jfbicke-mask0" mask-type="alpha" maskUnits="userSpaceOnUse" x="66" y="27" width="28" height="22">
<rect x="66" y="27" width="28" height="22" rx="2" fill="white"/>
</mask>
<g mask="url(#tqe9jfbicke-mask0)">
<path opacity="0.2" fill-rule="evenodd" clip-rule="evenodd" d="M90 39C95.4059 39 98.7327 43.2697 104 49C99.703 49 81.3071 49 76 49C80.5743 44.2809 84.5941 39 90 39Z" fill="#58A8F7"/>
<path opacity="0.2" fill-rule="evenodd" clip-rule="evenodd" d="M70 37C75.7062 37 79.8981 42.7219 85 49C78.306 49 62.0952 49 56 49C60.9281 42.7219 64.2938 37 70 37Z" fill="#0D87FF"/>
<path opacity="0.5" fill-rule="evenodd" clip-rule="evenodd" d="M81 37C82.6569 37 84 35.6569 84 34C84 32.3431 82.6569 31 81 31C79.3431 31 78 32.3431 78 34C78 35.6569 79.3431 37 81 37Z" fill="#58A8F7"/>
</g>
<rect x="64" y="68" width="32" height="38" rx="3" fill="white"/>
<rect opacity="0.2" x="66" y="95" width="28" height="3" fill="#58A8F7"/>
<rect opacity="0.2" x="73" y="101" width="14" height="3" fill="#58A8F7"/>
<rect opacity="0.2" x="66" y="70" width="28" height="22" rx="2" fill="#58A8F7"/>
<mask id="tqe9jfbicke-mask1" mask-type="alpha" maskUnits="userSpaceOnUse" x="66" y="70" width="28" height="22">
<rect x="66" y="70" width="28" height="22" rx="2" fill="white"/>
</mask>
<g mask="url(#tqe9jfbicke-mask1)">
<path opacity="0.2" fill-rule="evenodd" clip-rule="evenodd" d="M90 82C95.4059 82 98.7327 86.2697 104 92C99.703 92 81.3071 92 76 92C80.5743 87.2809 84.5941 82 90 82Z" fill="#58A8F7"/>
<path opacity="0.2" fill-rule="evenodd" clip-rule="evenodd" d="M70 80C75.7062 80 79.8981 85.7219 85 92C78.306 92 62.0952 92 56 92C60.9281 85.7219 64.2938 80 70 80Z" fill="#0D87FF"/>
<path opacity="0.5" fill-rule="evenodd" clip-rule="evenodd" d="M81 80C82.6569 80 84 78.6569 84 77C84 75.3431 82.6569 74 81 74C79.3431 74 78 75.3431 78 77C78 78.6569 79.3431 80 81 80Z" fill="#58A8F7"/>
</g>
<rect x="101" y="25" width="32" height="38" rx="3" fill="white"/>
<rect opacity="0.2" x="103" y="52" width="28" height="3" fill="#58A8F7"/>
<rect opacity="0.2" x="110" y="58" width="14" height="3" fill="#58A8F7"/>
<rect opacity="0.2" x="103" y="27" width="28" height="22" rx="2" fill="#58A8F7"/>
<mask id="tqe9jfbicke-mask2" mask-type="alpha" maskUnits="userSpaceOnUse" x="103" y="27" width="28" height="22">
<rect x="103" y="27" width="28" height="22" rx="2" fill="white"/>
</mask>
<g mask="url(#tqe9jfbicke-mask2)">
<path opacity="0.2" fill-rule="evenodd" clip-rule="evenodd" d="M127 39C132.406 39 135.733 43.2697 141 49C136.703 49 118.307 49 113 49C117.574 44.2809 121.594 39 127 39Z" fill="#58A8F7"/>
<path opacity="0.2" fill-rule="evenodd" clip-rule="evenodd" d="M107 37C112.706 37 116.898 42.7219 122 49C115.306 49 99.0952 49 93 49C97.9281 42.7219 101.294 37 107 37Z" fill="#0D87FF"/>
<path opacity="0.5" fill-rule="evenodd" clip-rule="evenodd" d="M118 37C119.657 37 121 35.6569 121 34C121 32.3431 119.657 31 118 31C116.343 31 115 32.3431 115 34C115 35.6569 116.343 37 118 37Z" fill="#58A8F7"/>
</g>
<rect x="101" y="68" width="32" height="38" rx="3" fill="white"/>
<rect opacity="0.2" x="103" y="95" width="28" height="3" fill="#58A8F7"/>
<rect opacity="0.2" x="110" y="101" width="14" height="3" fill="#58A8F7"/>
<rect opacity="0.2" x="103" y="70" width="28" height="22" rx="2" fill="#58A8F7"/>
<mask id="tqe9jfbicke-mask3" mask-type="alpha" maskUnits="userSpaceOnUse" x="103" y="70" width="28" height="22">
<rect x="103" y="70" width="28" height="22" rx="2" fill="white"/>
</mask>
<g mask="url(#tqe9jfbicke-mask3)">
<path opacity="0.2" fill-rule="evenodd" clip-rule="evenodd" d="M127 82C132.406 82 135.733 86.2697 141 92C136.703 92 118.307 92 113 92C117.574 87.2809 121.594 82 127 82Z" fill="#58A8F7"/>
<path opacity="0.2" fill-rule="evenodd" clip-rule="evenodd" d="M107 80C112.706 80 116.898 85.7219 122 92C115.306 92 99.0952 92 93 92C97.9281 85.7219 101.294 80 107 80Z" fill="#0D87FF"/>
<path opacity="0.5" fill-rule="evenodd" clip-rule="evenodd" d="M118 80C119.657 80 121 78.6569 121 77C121 75.3431 119.657 74 118 74C116.343 74 115 75.3431 115 77C115 78.6569 116.343 80 118 80Z" fill="#58A8F7"/>
</g>
<rect x="138" y="25" width="32" height="38" rx="3" fill="white"/>
<rect opacity="0.2" x="140" y="52" width="28" height="3" fill="#58A8F7"/>
<rect opacity="0.2" x="147" y="58" width="14" height="3" fill="#58A8F7"/>
<rect opacity="0.2" x="140" y="27" width="28" height="22" rx="2" fill="#58A8F7"/>
<mask id="tqe9jfbicke-mask4" mask-type="alpha" maskUnits="userSpaceOnUse" x="140" y="27" width="28" height="22">
<rect x="140" y="27" width="28" height="22" rx="2" fill="white"/>
</mask>
<g mask="url(#tqe9jfbicke-mask4)">
<path opacity="0.2" fill-rule="evenodd" clip-rule="evenodd" d="M164 39C169.406 39 172.733 43.2697 178 49C173.703 49 155.307 49 150 49C154.574 44.2809 158.594 39 164 39Z" fill="#58A8F7"/>
<path opacity="0.2" fill-rule="evenodd" clip-rule="evenodd" d="M144 37C149.706 37 153.898 42.7219 159 49C152.306 49 136.095 49 130 49C134.928 42.7219 138.294 37 144 37Z" fill="#0D87FF"/>
<path opacity="0.5" fill-rule="evenodd" clip-rule="evenodd" d="M155 37C156.657 37 158 35.6569 158 34C158 32.3431 156.657 31 155 31C153.343 31 152 32.3431 152 34C152 35.6569 153.343 37 155 37Z" fill="#58A8F7"/>
</g>
<rect x="138" y="68" width="32" height="38" rx="3" fill="white"/>
<rect opacity="0.2" x="140" y="95" width="28" height="3" fill="#58A8F7"/>
<rect opacity="0.2" x="147" y="101" width="14" height="3" fill="#58A8F7"/>
<rect opacity="0.2" x="140" y="70" width="28" height="22" rx="2" fill="#58A8F7"/>
<mask id="tqe9jfbicke-mask5" mask-type="alpha" maskUnits="userSpaceOnUse" x="140" y="70" width="28" height="22">
<rect x="140" y="70" width="28" height="22" rx="2" fill="white"/>
</mask>
<g mask="url(#tqe9jfbicke-mask5)">
<path opacity="0.2" fill-rule="evenodd" clip-rule="evenodd" d="M164 82C169.406 82 172.733 86.2697 178 92C173.703 92 155.307 92 150 92C154.574 87.2809 158.594 82 164 82Z" fill="#58A8F7"/>
<path opacity="0.2" fill-rule="evenodd" clip-rule="evenodd" d="M144 80C149.706 80 153.898 85.7219 159 92C152.306 92 136.095 92 130 92C134.928 85.7219 138.294 80 144 80Z" fill="#0D87FF"/>
<path opacity="0.5" fill-rule="evenodd" clip-rule="evenodd" d="M155 80C156.657 80 158 78.6569 158 77C158 75.3431 156.657 74 155 74C153.343 74 152 75.3431 152 77C152 78.6569 153.343 80 155 80Z" fill="#58A8F7"/>
</g>
<rect x="64" y="111" width="32" height="38" rx="3" fill="white"/>
<rect opacity="0.2" x="66" y="138" width="28" height="3" fill="#58A8F7"/>
<rect opacity="0.2" x="73" y="144" width="14" height="3" fill="#58A8F7"/>
<rect opacity="0.2" x="66" y="113" width="28" height="22" rx="2" fill="#58A8F7"/>
<mask id="tqe9jfbicke-mask6" mask-type="alpha" maskUnits="userSpaceOnUse" x="66" y="113" width="28" height="22">
<rect x="66" y="113" width="28" height="22" rx="2" fill="white"/>
</mask>
<g mask="url(#tqe9jfbicke-mask6)">
<path opacity="0.2" fill-rule="evenodd" clip-rule="evenodd" d="M90 125C95.4059 125 98.7327 129.27 104 135C99.703 135 81.3071 135 76 135C80.5743 130.281 84.5941 125 90 125Z" fill="#58A8F7"/>
<path opacity="0.2" fill-rule="evenodd" clip-rule="evenodd" d="M70 123C75.7062 123 79.8981 128.722 85 135C78.306 135 62.0952 135 56 135C60.9281 128.722 64.2938 123 70 123Z" fill="#0D87FF"/>
<path opacity="0.5" fill-rule="evenodd" clip-rule="evenodd" d="M81 123C82.6569 123 84 121.657 84 120C84 118.343 82.6569 117 81 117C79.3431 117 78 118.343 78 120C78 121.657 79.3431 123 81 123Z" fill="#58A8F7"/>
</g>
<rect x="101" y="111" width="32" height="38" rx="3" fill="white"/>
<rect opacity="0.2" x="103" y="138" width="28" height="3" fill="#58A8F7"/>
<rect opacity="0.2" x="110" y="144" width="14" height="3" fill="#58A8F7"/>
<rect opacity="0.2" x="103" y="113" width="28" height="22" rx="2" fill="#58A8F7"/>
<mask id="tqe9jfbicke-mask7" mask-type="alpha" maskUnits="userSpaceOnUse" x="103" y="113" width="28" height="22">
<rect x="103" y="113" width="28" height="22" rx="2" fill="white"/>
</mask>
<g mask="url(#tqe9jfbicke-mask7)">
<path opacity="0.2" fill-rule="evenodd" clip-rule="evenodd" d="M127 125C132.406 125 135.733 129.27 141 135C136.703 135 118.307 135 113 135C117.574 130.281 121.594 125 127 125Z" fill="#58A8F7"/>
<path opacity="0.2" fill-rule="evenodd" clip-rule="evenodd" d="M107 123C112.706 123 116.898 128.722 122 135C115.306 135 99.0952 135 93 135C97.9281 128.722 101.294 123 107 123Z" fill="#0D87FF"/>
<path opacity="0.5" fill-rule="evenodd" clip-rule="evenodd" d="M118 123C119.657 123 121 121.657 121 120C121 118.343 119.657 117 118 117C116.343 117 115 118.343 115 120C115 121.657 116.343 123 118 123Z" fill="#58A8F7"/>
</g>
<rect x="138" y="111" width="32" height="38" rx="3" fill="white"/>
<rect opacity="0.2" x="140" y="138" width="28" height="3" fill="#58A8F7"/>
<rect opacity="0.2" x="147" y="144" width="14" height="3" fill="#58A8F7"/>
<rect opacity="0.2" x="140" y="113" width="28" height="22" rx="2" fill="#58A8F7"/>
<mask id="tqe9jfbicke-mask8" mask-type="alpha" maskUnits="userSpaceOnUse" x="140" y="113" width="28" height="22">
<rect x="140" y="113" width="28" height="22" rx="2" fill="white"/>
</mask>
<g mask="url(#tqe9jfbicke-mask8)">
<path opacity="0.2" fill-rule="evenodd" clip-rule="evenodd" d="M164 125C169.406 125 172.733 129.27 178 135C173.703 135 155.307 135 150 135C154.574 130.281 158.594 125 164 125Z" fill="#58A8F7"/>
<path opacity="0.2" fill-rule="evenodd" clip-rule="evenodd" d="M144 123C149.706 123 153.898 128.722 159 135C152.306 135 136.095 135 130 135C134.928 128.722 138.294 123 144 123Z" fill="#0D87FF"/>
<path opacity="0.5" fill-rule="evenodd" clip-rule="evenodd" d="M155 123C156.657 123 158 121.657 158 120C158 118.343 156.657 117 155 117C153.343 117 152 118.343 152 120C152 121.657 153.343 123 155 123Z" fill="#58A8F7"/>
</g>
<rect opacity="0.2" x="64" y="162" width="12" height="11.9999" rx="2" fill="#58A8F7"/>
<rect opacity="0.2" x="83" y="162" width="12" height="11.9999" rx="2" fill="#58A8F7"/>
<rect opacity="0.2" x="102" y="162" width="12" height="11.9999" rx="2" fill="#58A8F7"/>
<rect opacity="0.2" x="121" y="162" width="12" height="11.9999" rx="2" fill="#58A8F7"/>
<rect opacity="0.2" x="140" y="162" width="12" height="11.9999" rx="2" fill="#58A8F7"/>
<rect opacity="0.2" x="158" y="162" width="12" height="11.9999" rx="2" fill="#58A8F7"/>
<rect opacity="0.2" x="10" y="25" width="49" height="149" rx="3" fill="#58A8F7"/>
<rect opacity="0.5" x="16" y="154" width="37" height="11" rx="2" fill="#0D87FF"/>
<path opacity="0.2" fill-rule="evenodd" clip-rule="evenodd" d="M24 41L32 50V60L37 57V50L45 41H24Z" fill="#58A8F7"/>
<rect opacity="0.5" x="16" y="72" width="37" height="11" rx="2" fill="#58A8F7"/>
<rect x="17" y="73" width="35" height="9" rx="1" fill="white"/>
<rect opacity="0.2" x="18.5965" y="76" width="20.7719" height="3" fill="#58A8F7"/>
<path fill-rule="evenodd" clip-rule="evenodd" d="M45.5 79L43 76H48L45.5 79Z" fill="#0D87FF"/>
<rect opacity="0.5" x="16" y="88" width="37" height="11" rx="2" fill="#58A8F7"/>
<rect x="17" y="89" width="35" height="9" rx="1" fill="white"/>
<rect opacity="0.2" x="18.5965" y="92" width="20.7719" height="3" fill="#58A8F7"/>
<path fill-rule="evenodd" clip-rule="evenodd" d="M45.5 95L43 92H48L45.5 95Z" fill="#0D87FF"/>
<rect opacity="0.5" x="16" y="104" width="37" height="11" rx="2" fill="#58A8F7"/>
<rect x="17" y="105" width="35" height="9" rx="1" fill="white"/>
<rect opacity="0.2" x="18.5965" y="108" width="20.7719" height="3" fill="#58A8F7"/>
<path fill-rule="evenodd" clip-rule="evenodd" d="M45.5 111L43 108H48L45.5 111Z" fill="#0D87FF"/>
<rect opacity="0.5" x="16" y="120" width="37" height="11" rx="2" fill="#58A8F7"/>
<rect x="17" y="121" width="35" height="9" rx="1" fill="white"/>
<rect opacity="0.2" x="18.5965" y="124" width="20.7719" height="3" fill="#58A8F7"/>
<path fill-rule="evenodd" clip-rule="evenodd" d="M45.5 127L43 124H48L45.5 127Z" fill="#0D87FF"/>
</svg></g></g></g><rect x="-1" y="-1" rx="3" ry="3" width="182" height="230" fill="none" stroke="#A2CEF9" stroke-width="2"/><g transform="translate(0,206)"><g><text x="90" y="4" text-anchor="middle" font-family="Roboto,sans-serif" font-size="14px" fill="#52565f">Mes paires</text></g></g></g><g transform="translate(1210, 866)"><rect x="0" y="0" rx="2" ry="2" width="180" height="228" fill="#ffffff"/><g><g><g transform="translate( 0, 0 )"><svg xmlns="http://www.w3.org/2000/svg" width="180" height="184" viewBox="0 0 180 184" fill="none">
<path d="M0 3C0 1.34315 1.34315 0 3 0H177C178.657 0 180 1.34315 180 3V184H0V3Z" fill="#EFF7FF"/>
<path opacity="0.2" d="M0 3C0 1.34315 1.34315 0 3 0H177C178.657 0 180 1.34315 180 3V15H0V3Z" fill="#58A8F7"/>
<path opacity="0.5" fill-rule="evenodd" clip-rule="evenodd" d="M7.5 10C8.88071 10 10 8.88071 10 7.5C10 6.11929 8.88071 5 7.5 5C6.11929 5 5 6.11929 5 7.5C5 8.88071 6.11929 10 7.5 10ZM15.5 10C16.8807 10 18 8.88071 18 7.5C18 6.11929 16.8807 5 15.5 5C14.1193 5 13 6.11929 13 7.5C13 8.88071 14.1193 10 15.5 10ZM26 7.5C26 8.88071 24.8807 10 23.5 10C22.1193 10 21 8.88071 21 7.5C21 6.11929 22.1193 5 23.5 5C24.8807 5 26 6.11929 26 7.5Z" fill="#0D87FF"/>
<rect x="64" y="25" width="32" height="38" rx="3" fill="white"/>
<rect opacity="0.2" x="66" y="52" width="28" height="3" fill="#58A8F7"/>
<rect opacity="0.2" x="73" y="58" width="14" height="3" fill="#58A8F7"/>
<rect opacity="0.2" x="66" y="27" width="28" height="22" rx="2" fill="#58A8F7"/>
<mask id="u8r3amcx5l-mask0" mask-type="alpha" maskUnits="userSpaceOnUse" x="66" y="27" width="28" height="22">
<rect x="66" y="27" width="28" height="22" rx="2" fill="white"/>
</mask>
<g mask="url(#u8r3amcx5l-mask0)">
<path opacity="0.2" fill-rule="evenodd" clip-rule="evenodd" d="M90 39C95.4059 39 98.7327 43.2697 104 49C99.703 49 81.3071 49 76 49C80.5743 44.2809 84.5941 39 90 39Z" fill="#58A8F7"/>
<path opacity="0.2" fill-rule="evenodd" clip-rule="evenodd" d="M70 37C75.7062 37 79.8981 42.7219 85 49C78.306 49 62.0952 49 56 49C60.9281 42.7219 64.2938 37 70 37Z" fill="#0D87FF"/>
<path opacity="0.5" fill-rule="evenodd" clip-rule="evenodd" d="M81 37C82.6569 37 84 35.6569 84 34C84 32.3431 82.6569 31 81 31C79.3431 31 78 32.3431 78 34C78 35.6569 79.3431 37 81 37Z" fill="#58A8F7"/>
</g>
<rect x="64" y="68" width="32" height="38" rx="3" fill="white"/>
<rect opacity="0.2" x="66" y="95" width="28" height="3" fill="#58A8F7"/>
<rect opacity="0.2" x="73" y="101" width="14" height="3" fill="#58A8F7"/>
<rect opacity="0.2" x="66" y="70" width="28" height="22" rx="2" fill="#58A8F7"/>
<mask id="u8r3amcx5l-mask1" mask-type="alpha" maskUnits="userSpaceOnUse" x="66" y="70" width="28" height="22">
<rect x="66" y="70" width="28" height="22" rx="2" fill="white"/>
</mask>
<g mask="url(#u8r3amcx5l-mask1)">
<path opacity="0.2" fill-rule="evenodd" clip-rule="evenodd" d="M90 82C95.4059 82 98.7327 86.2697 104 92C99.703 92 81.3071 92 76 92C80.5743 87.2809 84.5941 82 90 82Z" fill="#58A8F7"/>
<path opacity="0.2" fill-rule="evenodd" clip-rule="evenodd" d="M70 80C75.7062 80 79.8981 85.7219 85 92C78.306 92 62.0952 92 56 92C60.9281 85.7219 64.2938 80 70 80Z" fill="#0D87FF"/>
<path opacity="0.5" fill-rule="evenodd" clip-rule="evenodd" d="M81 80C82.6569 80 84 78.6569 84 77C84 75.3431 82.6569 74 81 74C79.3431 74 78 75.3431 78 77C78 78.6569 79.3431 80 81 80Z" fill="#58A8F7"/>
</g>
<rect x="101" y="25" width="32" height="38" rx="3" fill="white"/>
<rect opacity="0.2" x="103" y="52" width="28" height="3" fill="#58A8F7"/>
<rect opacity="0.2" x="110" y="58" width="14" height="3" fill="#58A8F7"/>
<rect opacity="0.2" x="103" y="27" width="28" height="22" rx="2" fill="#58A8F7"/>
<mask id="u8r3amcx5l-mask2" mask-type="alpha" maskUnits="userSpaceOnUse" x="103" y="27" width="28" height="22">
<rect x="103" y="27" width="28" height="22" rx="2" fill="white"/>
</mask>
<g mask="url(#u8r3amcx5l-mask2)">
<path opacity="0.2" fill-rule="evenodd" clip-rule="evenodd" d="M127 39C132.406 39 135.733 43.2697 141 49C136.703 49 118.307 49 113 49C117.574 44.2809 121.594 39 127 39Z" fill="#58A8F7"/>
<path opacity="0.2" fill-rule="evenodd" clip-rule="evenodd" d="M107 37C112.706 37 116.898 42.7219 122 49C115.306 49 99.0952 49 93 49C97.9281 42.7219 101.294 37 107 37Z" fill="#0D87FF"/>
<path opacity="0.5" fill-rule="evenodd" clip-rule="evenodd" d="M118 37C119.657 37 121 35.6569 121 34C121 32.3431 119.657 31 118 31C116.343 31 115 32.3431 115 34C115 35.6569 116.343 37 118 37Z" fill="#58A8F7"/>
</g>
<rect x="101" y="68" width="32" height="38" rx="3" fill="white"/>
<rect opacity="0.2" x="103" y="95" width="28" height="3" fill="#58A8F7"/>
<rect opacity="0.2" x="110" y="101" width="14" height="3" fill="#58A8F7"/>
<rect opacity="0.2" x="103" y="70" width="28" height="22" rx="2" fill="#58A8F7"/>
<mask id="u8r3amcx5l-mask3" mask-type="alpha" maskUnits="userSpaceOnUse" x="103" y="70" width="28" height="22">
<rect x="103" y="70" width="28" height="22" rx="2" fill="white"/>
</mask>
<g mask="url(#u8r3amcx5l-mask3)">
<path opacity="0.2" fill-rule="evenodd" clip-rule="evenodd" d="M127 82C132.406 82 135.733 86.2697 141 92C136.703 92 118.307 92 113 92C117.574 87.2809 121.594 82 127 82Z" fill="#58A8F7"/>
<path opacity="0.2" fill-rule="evenodd" clip-rule="evenodd" d="M107 80C112.706 80 116.898 85.7219 122 92C115.306 92 99.0952 92 93 92C97.9281 85.7219 101.294 80 107 80Z" fill="#0D87FF"/>
<path opacity="0.5" fill-rule="evenodd" clip-rule="evenodd" d="M118 80C119.657 80 121 78.6569 121 77C121 75.3431 119.657 74 118 74C116.343 74 115 75.3431 115 77C115 78.6569 116.343 80 118 80Z" fill="#58A8F7"/>
</g>
<rect x="138" y="25" width="32" height="38" rx="3" fill="white"/>
<rect opacity="0.2" x="140" y="52" width="28" height="3" fill="#58A8F7"/>
<rect opacity="0.2" x="147" y="58" width="14" height="3" fill="#58A8F7"/>
<rect opacity="0.2" x="140" y="27" width="28" height="22" rx="2" fill="#58A8F7"/>
<mask id="u8r3amcx5l-mask4" mask-type="alpha" maskUnits="userSpaceOnUse" x="140" y="27" width="28" height="22">
<rect x="140" y="27" width="28" height="22" rx="2" fill="white"/>
</mask>
<g mask="url(#u8r3amcx5l-mask4)">
<path opacity="0.2" fill-rule="evenodd" clip-rule="evenodd" d="M164 39C169.406 39 172.733 43.2697 178 49C173.703 49 155.307 49 150 49C154.574 44.2809 158.594 39 164 39Z" fill="#58A8F7"/>
<path opacity="0.2" fill-rule="evenodd" clip-rule="evenodd" d="M144 37C149.706 37 153.898 42.7219 159 49C152.306 49 136.095 49 130 49C134.928 42.7219 138.294 37 144 37Z" fill="#0D87FF"/>
<path opacity="0.5" fill-rule="evenodd" clip-rule="evenodd" d="M155 37C156.657 37 158 35.6569 158 34C158 32.3431 156.657 31 155 31C153.343 31 152 32.3431 152 34C152 35.6569 153.343 37 155 37Z" fill="#58A8F7"/>
</g>
<rect x="138" y="68" width="32" height="38" rx="3" fill="white"/>
<rect opacity="0.2" x="140" y="95" width="28" height="3" fill="#58A8F7"/>
<rect opacity="0.2" x="147" y="101" width="14" height="3" fill="#58A8F7"/>
<rect opacity="0.2" x="140" y="70" width="28" height="22" rx="2" fill="#58A8F7"/>
<mask id="u8r3amcx5l-mask5" mask-type="alpha" maskUnits="userSpaceOnUse" x="140" y="70" width="28" height="22">
<rect x="140" y="70" width="28" height="22" rx="2" fill="white"/>
</mask>
<g mask="url(#u8r3amcx5l-mask5)">
<path opacity="0.2" fill-rule="evenodd" clip-rule="evenodd" d="M164 82C169.406 82 172.733 86.2697 178 92C173.703 92 155.307 92 150 92C154.574 87.2809 158.594 82 164 82Z" fill="#58A8F7"/>
<path opacity="0.2" fill-rule="evenodd" clip-rule="evenodd" d="M144 80C149.706 80 153.898 85.7219 159 92C152.306 92 136.095 92 130 92C134.928 85.7219 138.294 80 144 80Z" fill="#0D87FF"/>
<path opacity="0.5" fill-rule="evenodd" clip-rule="evenodd" d="M155 80C156.657 80 158 78.6569 158 77C158 75.3431 156.657 74 155 74C153.343 74 152 75.3431 152 77C152 78.6569 153.343 80 155 80Z" fill="#58A8F7"/>
</g>
<rect x="64" y="111" width="32" height="38" rx="3" fill="white"/>
<rect opacity="0.2" x="66" y="138" width="28" height="3" fill="#58A8F7"/>
<rect opacity="0.2" x="73" y="144" width="14" height="3" fill="#58A8F7"/>
<rect opacity="0.2" x="66" y="113" width="28" height="22" rx="2" fill="#58A8F7"/>
<mask id="u8r3amcx5l-mask6" mask-type="alpha" maskUnits="userSpaceOnUse" x="66" y="113" width="28" height="22">
<rect x="66" y="113" width="28" height="22" rx="2" fill="white"/>
</mask>
<g mask="url(#u8r3amcx5l-mask6)">
<path opacity="0.2" fill-rule="evenodd" clip-rule="evenodd" d="M90 125C95.4059 125 98.7327 129.27 104 135C99.703 135 81.3071 135 76 135C80.5743 130.281 84.5941 125 90 125Z" fill="#58A8F7"/>
<path opacity="0.2" fill-rule="evenodd" clip-rule="evenodd" d="M70 123C75.7062 123 79.8981 128.722 85 135C78.306 135 62.0952 135 56 135C60.9281 128.722 64.2938 123 70 123Z" fill="#0D87FF"/>
<path opacity="0.5" fill-rule="evenodd" clip-rule="evenodd" d="M81 123C82.6569 123 84 121.657 84 120C84 118.343 82.6569 117 81 117C79.3431 117 78 118.343 78 120C78 121.657 79.3431 123 81 123Z" fill="#58A8F7"/>
</g>
<rect x="101" y="111" width="32" height="38" rx="3" fill="white"/>
<rect opacity="0.2" x="103" y="138" width="28" height="3" fill="#58A8F7"/>
<rect opacity="0.2" x="110" y="144" width="14" height="3" fill="#58A8F7"/>
<rect opacity="0.2" x="103" y="113" width="28" height="22" rx="2" fill="#58A8F7"/>
<mask id="u8r3amcx5l-mask7" mask-type="alpha" maskUnits="userSpaceOnUse" x="103" y="113" width="28" height="22">
<rect x="103" y="113" width="28" height="22" rx="2" fill="white"/>
</mask>
<g mask="url(#u8r3amcx5l-mask7)">
<path opacity="0.2" fill-rule="evenodd" clip-rule="evenodd" d="M127 125C132.406 125 135.733 129.27 141 135C136.703 135 118.307 135 113 135C117.574 130.281 121.594 125 127 125Z" fill="#58A8F7"/>
<path opacity="0.2" fill-rule="evenodd" clip-rule="evenodd" d="M107 123C112.706 123 116.898 128.722 122 135C115.306 135 99.0952 135 93 135C97.9281 128.722 101.294 123 107 123Z" fill="#0D87FF"/>
<path opacity="0.5" fill-rule="evenodd" clip-rule="evenodd" d="M118 123C119.657 123 121 121.657 121 120C121 118.343 119.657 117 118 117C116.343 117 115 118.343 115 120C115 121.657 116.343 123 118 123Z" fill="#58A8F7"/>
</g>
<rect x="138" y="111" width="32" height="38" rx="3" fill="white"/>
<rect opacity="0.2" x="140" y="138" width="28" height="3" fill="#58A8F7"/>
<rect opacity="0.2" x="147" y="144" width="14" height="3" fill="#58A8F7"/>
<rect opacity="0.2" x="140" y="113" width="28" height="22" rx="2" fill="#58A8F7"/>
<mask id="u8r3amcx5l-mask8" mask-type="alpha" maskUnits="userSpaceOnUse" x="140" y="113" width="28" height="22">
<rect x="140" y="113" width="28" height="22" rx="2" fill="white"/>
</mask>
<g mask="url(#u8r3amcx5l-mask8)">
<path opacity="0.2" fill-rule="evenodd" clip-rule="evenodd" d="M164 125C169.406 125 172.733 129.27 178 135C173.703 135 155.307 135 150 135C154.574 130.281 158.594 125 164 125Z" fill="#58A8F7"/>
<path opacity="0.2" fill-rule="evenodd" clip-rule="evenodd" d="M144 123C149.706 123 153.898 128.722 159 135C152.306 135 136.095 135 130 135C134.928 128.722 138.294 123 144 123Z" fill="#0D87FF"/>
<path opacity="0.5" fill-rule="evenodd" clip-rule="evenodd" d="M155 123C156.657 123 158 121.657 158 120C158 118.343 156.657 117 155 117C153.343 117 152 118.343 152 120C152 121.657 153.343 123 155 123Z" fill="#58A8F7"/>
</g>
<rect opacity="0.2" x="64" y="162" width="12" height="11.9999" rx="2" fill="#58A8F7"/>
<rect opacity="0.2" x="83" y="162" width="12" height="11.9999" rx="2" fill="#58A8F7"/>
<rect opacity="0.2" x="102" y="162" width="12" height="11.9999" rx="2" fill="#58A8F7"/>
<rect opacity="0.2" x="121" y="162" width="12" height="11.9999" rx="2" fill="#58A8F7"/>
<rect opacity="0.2" x="140" y="162" width="12" height="11.9999" rx="2" fill="#58A8F7"/>
<rect opacity="0.2" x="158" y="162" width="12" height="11.9999" rx="2" fill="#58A8F7"/>
<rect opacity="0.2" x="10" y="25" width="49" height="149" rx="3" fill="#58A8F7"/>
<rect opacity="0.5" x="16" y="154" width="37" height="11" rx="2" fill="#0D87FF"/>
<path opacity="0.2" fill-rule="evenodd" clip-rule="evenodd" d="M24 41L32 50V60L37 57V50L45 41H24Z" fill="#58A8F7"/>
<rect opacity="0.5" x="16" y="72" width="37" height="11" rx="2" fill="#58A8F7"/>
<rect x="17" y="73" width="35" height="9" rx="1" fill="white"/>
<rect opacity="0.2" x="18.5965" y="76" width="20.7719" height="3" fill="#58A8F7"/>
<path fill-rule="evenodd" clip-rule="evenodd" d="M45.5 79L43 76H48L45.5 79Z" fill="#0D87FF"/>
<rect opacity="0.5" x="16" y="88" width="37" height="11" rx="2" fill="#58A8F7"/>
<rect x="17" y="89" width="35" height="9" rx="1" fill="white"/>
<rect opacity="0.2" x="18.5965" y="92" width="20.7719" height="3" fill="#58A8F7"/>
<path fill-rule="evenodd" clip-rule="evenodd" d="M45.5 95L43 92H48L45.5 95Z" fill="#0D87FF"/>
<rect opacity="0.5" x="16" y="104" width="37" height="11" rx="2" fill="#58A8F7"/>
<rect x="17" y="105" width="35" height="9" rx="1" fill="white"/>
<rect opacity="0.2" x="18.5965" y="108" width="20.7719" height="3" fill="#58A8F7"/>
<path fill-rule="evenodd" clip-rule="evenodd" d="M45.5 111L43 108H48L45.5 111Z" fill="#0D87FF"/>
<rect opacity="0.5" x="16" y="120" width="37" height="11" rx="2" fill="#58A8F7"/>
<rect x="17" y="121" width="35" height="9" rx="1" fill="white"/>
<rect opacity="0.2" x="18.5965" y="124" width="20.7719" height="3" fill="#58A8F7"/>
<path fill-rule="evenodd" clip-rule="evenodd" d="M45.5 127L43 124H48L45.5 127Z" fill="#0D87FF"/>
</svg></g></g></g><rect x="-1" y="-1" rx="3" ry="3" width="182" height="230" fill="none" stroke="#A2CEF9" stroke-width="2"/><g transform="translate(0,206)"><g><text x="90" y="4" text-anchor="middle" font-family="Roboto,sans-serif" font-size="14px" fill="#52565f">Ma Wishlist</text></g></g></g><g transform="translate(1010, 586)"><rect x="0" y="0" rx="2" ry="2" width="180" height="228" fill="#ffffff"/><g><g><g transform="translate( 0, 0 )"><svg xmlns="http://www.w3.org/2000/svg" xmlns:xlink="http://www.w3.org/1999/xlink" width="180" height="185" viewBox="0 0 180 185">
  <defs>
    <path id="crisdbp50v-lk-a" d="M0,1.99729162 C0,0.894217919 0.899814069,0 1.99402962,0 L158.00597,0 C159.107243,0 160,0.891539827 160,1.99729162 L160,38.0027084 C160,39.1057821 159.100186,40 158.00597,40 L1.99402962,40 C0.89275747,40 0,39.1084602 0,38.0027084 L0,1.99729162 Z"/>
    <circle id="crisdbp50v-lk-c" cx="18" cy="18" r="18"/>
  </defs>
  <g fill="none" fill-rule="evenodd">
    <path fill="#58A8F7" d="M0,2.99971296 C0,1.34301724 1.34537458,0 2.99263929,0 L177.007361,0 C178.66015,0 180,1.34382565 180,2.99971296 L180,185 L0,185 L0,2.99971296 Z" opacity=".097"/>
    <g transform="translate(10 26)">
      <path fill="#58A8F7" d="M0,1.99729162 C0,0.894217919 0.899814069,0 1.99402962,0 L158.00597,0 C159.107243,0 160,0.891539827 160,1.99729162 L160,38.0027084 C160,39.1057821 159.100186,40 158.00597,40 L1.99402962,40 C0.89275747,40 0,39.1084602 0,38.0027084 L0,1.99729162 Z" opacity=".197"/>
      <mask id="crisdbp50v-lk-b" fill="#fff">
        <use xlink:href="#crisdbp50v-lk-a"/>
      </mask>
      <path fill="#58A8F7" d="M123.544554,22 C147.292079,22 158.861386,29.6853933 182,40 C163.123762,40 82.3134379,40 59,40 C79.0940594,31.505618 99.7970297,22 123.544554,22 Z" mask="url(#crisdbp50v-lk-b)" opacity=".197"/>
      <path fill="#0D87FF" d="M44.5,9 C69.8826643,9 86.3055556,23.781645 109,40 C79.2231422,40 7.11330049,40 -20,40 C1.92139189,23.781645 19.1173357,9 44.5,9 Z" mask="url(#crisdbp50v-lk-b)" opacity=".198"/>
      <circle cx="94" cy="11" r="7" fill="#58A8F7" mask="url(#crisdbp50v-lk-b)" opacity=".499"/>
    </g>
    <circle cx="18" cy="18" r="18" fill="#FFF" transform="translate(19 58)"/>
    <g fill="#58A8F7" opacity=".499" transform="translate(60 71)">
      <polygon points="0 0 50 0 50 5 0 5"/>
      <polygon points="0 0 30 0 30 5 0 5" transform="translate(0 9)"/>
    </g>
    <g transform="translate(19 58)">
      <mask id="crisdbp50v-lk-d" fill="#fff">
        <use xlink:href="#crisdbp50v-lk-c"/>
      </mask>
      <use fill="#58A8F7" opacity=".197" xlink:href="#crisdbp50v-lk-c"/>
      <path fill="#0D87FF" d="M18,50.4 C9.3843579,50.4 2.4,43.4156421 2.4,34.8 C2.4,26.1843579 9.3843579,19.2 18,19.2 C26.6156421,19.2 33.6,26.1843579 33.6,34.8 C33.6,43.4156421 26.6156421,50.4 18,50.4 Z M18,16.8 C14.6862915,16.8 12,14.1137085 12,10.8 C12,7.4862915 14.6862915,4.8 18,4.8 C21.3137085,4.8 24,7.4862915 24,10.8 C24,14.1137085 21.3137085,16.8 18,16.8 Z" mask="url(#crisdbp50v-lk-d)" opacity=".499"/>
    </g>
    <path fill="#58A8F7" d="M0,3.00947762 C0,1.34738902 1.34537458,0 2.99263929,0 L177.007361,0 C178.66015,0 180,1.33663106 180,3.00947762 L180,16 L0,16 L0,3.00947762 Z" opacity=".197"/>
    <path fill="#0D87FF" d="M2.5,5 C1.11928813,5 0,3.88071187 0,2.5 C0,1.11928813 1.11928813,0 2.5,0 C3.88071187,0 5,1.11928813 5,2.5 C5,3.88071187 3.88071187,5 2.5,5 Z M10.5,5 C9.11928813,5 8,3.88071187 8,2.5 C8,1.11928813 9.11928813,0 10.5,0 C11.8807119,0 13,1.11928813 13,2.5 C13,3.88071187 11.8807119,5 10.5,5 Z M18.5,5 C17.1192881,5 16,3.88071187 16,2.5 C16,1.11928813 17.1192881,0 18.5,0 C19.8807119,0 21,1.11928813 21,2.5 C21,3.88071187 19.8807119,5 18.5,5 Z" opacity=".499" transform="translate(5 6)"/>
    <g transform="translate(10 104)">
      <g transform="translate(0 6)">
        <rect width="91" height="11" fill="#58A8F7" opacity=".499" rx="2"/>
        <rect width="89" height="9" x="1" y="1" fill="#FFF" rx="1"/>
        <polygon fill="#58A8F7" points="0 0 53 0 53 3 0 3" opacity=".197" transform="translate(4 4)"/>
        <polygon fill="#0D87FF" points="2.5 3 0 0 5 0" transform="translate(81 4)"/>
      </g>
      <polygon fill="#58A8F7" points="0 0 32 0 32 3 0 3" opacity=".197"/>
    </g>
    <g transform="translate(10 153)">
      <g transform="translate(0 6)">
        <rect width="91" height="11" fill="#58A8F7" opacity=".499" rx="2"/>
        <rect width="89" height="9" x="1" y="1" fill="#FFF" rx="1"/>
        <polygon fill="#58A8F7" points="0 0 53 0 53 3 0 3" opacity=".197" transform="translate(4 4)"/>
        <polygon fill="#0D87FF" points="2.5 3 0 0 5 0" transform="translate(81 4)"/>
      </g>
      <polygon fill="#58A8F7" points="0 0 32 0 32 3 0 3" opacity=".197"/>
    </g>
    <g transform="translate(10 126)">
      <g transform="translate(0 6)">
        <rect width="91" height="11" fill="#58A8F7" opacity=".499" rx="2"/>
        <rect width="89" height="9" x="1" y="1" fill="#FFF" rx="1"/>
        <polygon fill="#58A8F7" points="0 0 53 0 53 3 0 3" opacity=".197" transform="translate(4 4)"/>
        <polygon fill="#0D87FF" points="2.5 3 0 0 5 0" transform="translate(81 4)"/>
      </g>
      <polygon fill="#58A8F7" points="0 0 32 0 32 3 0 3" opacity=".197"/>
    </g>
  </g>
</svg></g></g></g><rect x="-1" y="-1" rx="3" ry="3" width="182" height="230" fill="none" stroke="#A2CEF9" stroke-width="2"/><g transform="translate(0,206)"><g><text x="90" y="4" text-anchor="middle" font-family="Roboto,sans-serif" font-size="14px" fill="#52565f">Mon Compte</text></g></g></g><g transform="translate(1410, 586)"><rect x="0" y="0" rx="2" ry="2" width="180" height="228" fill="#ffffff"/><g><g><g transform="translate( 0, 0 )"><svg xmlns="http://www.w3.org/2000/svg" xmlns:xlink="http://www.w3.org/1999/xlink" width="180" height="185" viewBox="0 0 180 185">
  <defs>
    <path id="fs9q96adied-lk-a" d="M0,1.99729162 C0,0.894217919 0.899814069,0 1.99402962,0 L158.00597,0 C159.107243,0 160,0.891539827 160,1.99729162 L160,38.0027084 C160,39.1057821 159.100186,40 158.00597,40 L1.99402962,40 C0.89275747,40 0,39.1084602 0,38.0027084 L0,1.99729162 Z"/>
    <circle id="fs9q96adied-lk-c" cx="18" cy="18" r="18"/>
  </defs>
  <g fill="none" fill-rule="evenodd">
    <path fill="#58A8F7" d="M0,2.99971296 C0,1.34301724 1.34537458,0 2.99263929,0 L177.007361,0 C178.66015,0 180,1.34382565 180,2.99971296 L180,185 L0,185 L0,2.99971296 Z" opacity=".097"/>
    <g transform="translate(10 26)">
      <path fill="#58A8F7" d="M0,1.99729162 C0,0.894217919 0.899814069,0 1.99402962,0 L158.00597,0 C159.107243,0 160,0.891539827 160,1.99729162 L160,38.0027084 C160,39.1057821 159.100186,40 158.00597,40 L1.99402962,40 C0.89275747,40 0,39.1084602 0,38.0027084 L0,1.99729162 Z" opacity=".197"/>
      <mask id="fs9q96adied-lk-b" fill="#fff">
        <use xlink:href="#fs9q96adied-lk-a"/>
      </mask>
      <path fill="#58A8F7" d="M123.544554,22 C147.292079,22 158.861386,29.6853933 182,40 C163.123762,40 82.3134379,40 59,40 C79.0940594,31.505618 99.7970297,22 123.544554,22 Z" mask="url(#fs9q96adied-lk-b)" opacity=".197"/>
      <path fill="#0D87FF" d="M44.5,9 C69.8826643,9 86.3055556,23.781645 109,40 C79.2231422,40 7.11330049,40 -20,40 C1.92139189,23.781645 19.1173357,9 44.5,9 Z" mask="url(#fs9q96adied-lk-b)" opacity=".198"/>
      <circle cx="94" cy="11" r="7" fill="#58A8F7" mask="url(#fs9q96adied-lk-b)" opacity=".499"/>
    </g>
    <circle cx="18" cy="18" r="18" fill="#FFF" transform="translate(19 58)"/>
    <g fill="#58A8F7" opacity=".499" transform="translate(60 71)">
      <polygon points="0 0 50 0 50 5 0 5"/>
      <polygon points="0 0 30 0 30 5 0 5" transform="translate(0 9)"/>
    </g>
    <g transform="translate(19 58)">
      <mask id="fs9q96adied-lk-d" fill="#fff">
        <use xlink:href="#fs9q96adied-lk-c"/>
      </mask>
      <use fill="#58A8F7" opacity=".197" xlink:href="#fs9q96adied-lk-c"/>
      <path fill="#0D87FF" d="M18,50.4 C9.3843579,50.4 2.4,43.4156421 2.4,34.8 C2.4,26.1843579 9.3843579,19.2 18,19.2 C26.6156421,19.2 33.6,26.1843579 33.6,34.8 C33.6,43.4156421 26.6156421,50.4 18,50.4 Z M18,16.8 C14.6862915,16.8 12,14.1137085 12,10.8 C12,7.4862915 14.6862915,4.8 18,4.8 C21.3137085,4.8 24,7.4862915 24,10.8 C24,14.1137085 21.3137085,16.8 18,16.8 Z" mask="url(#fs9q96adied-lk-d)" opacity=".499"/>
    </g>
    <path fill="#58A8F7" d="M0,3.00947762 C0,1.34738902 1.34537458,0 2.99263929,0 L177.007361,0 C178.66015,0 180,1.33663106 180,3.00947762 L180,16 L0,16 L0,3.00947762 Z" opacity=".197"/>
    <path fill="#0D87FF" d="M2.5,5 C1.11928813,5 0,3.88071187 0,2.5 C0,1.11928813 1.11928813,0 2.5,0 C3.88071187,0 5,1.11928813 5,2.5 C5,3.88071187 3.88071187,5 2.5,5 Z M10.5,5 C9.11928813,5 8,3.88071187 8,2.5 C8,1.11928813 9.11928813,0 10.5,0 C11.8807119,0 13,1.11928813 13,2.5 C13,3.88071187 11.8807119,5 10.5,5 Z M18.5,5 C17.1192881,5 16,3.88071187 16,2.5 C16,1.11928813 17.1192881,0 18.5,0 C19.8807119,0 21,1.11928813 21,2.5 C21,3.88071187 19.8807119,5 18.5,5 Z" opacity=".499" transform="translate(5 6)"/>
    <g transform="translate(10 104)">
      <g transform="translate(0 6)">
        <rect width="91" height="11" fill="#58A8F7" opacity=".499" rx="2"/>
        <rect width="89" height="9" x="1" y="1" fill="#FFF" rx="1"/>
        <polygon fill="#58A8F7" points="0 0 53 0 53 3 0 3" opacity=".197" transform="translate(4 4)"/>
        <polygon fill="#0D87FF" points="2.5 3 0 0 5 0" transform="translate(81 4)"/>
      </g>
      <polygon fill="#58A8F7" points="0 0 32 0 32 3 0 3" opacity=".197"/>
    </g>
    <g transform="translate(10 153)">
      <g transform="translate(0 6)">
        <rect width="91" height="11" fill="#58A8F7" opacity=".499" rx="2"/>
        <rect width="89" height="9" x="1" y="1" fill="#FFF" rx="1"/>
        <polygon fill="#58A8F7" points="0 0 53 0 53 3 0 3" opacity=".197" transform="translate(4 4)"/>
        <polygon fill="#0D87FF" points="2.5 3 0 0 5 0" transform="translate(81 4)"/>
      </g>
      <polygon fill="#58A8F7" points="0 0 32 0 32 3 0 3" opacity=".197"/>
    </g>
    <g transform="translate(10 126)">
      <g transform="translate(0 6)">
        <rect width="91" height="11" fill="#58A8F7" opacity=".499" rx="2"/>
        <rect width="89" height="9" x="1" y="1" fill="#FFF" rx="1"/>
        <polygon fill="#58A8F7" points="0 0 53 0 53 3 0 3" opacity=".197" transform="translate(4 4)"/>
        <polygon fill="#0D87FF" points="2.5 3 0 0 5 0" transform="translate(81 4)"/>
      </g>
      <polygon fill="#58A8F7" points="0 0 32 0 32 3 0 3" opacity=".197"/>
    </g>
  </g>
</svg></g></g></g><rect x="-1" y="-1" rx="3" ry="3" width="182" height="230" fill="none" stroke="#A2CEF9" stroke-width="2"/><g transform="translate(0,206)"><g><text x="90" y="4" text-anchor="middle" font-family="Roboto,sans-serif" font-size="14px" fill="#52565f">Page admin</text></g></g></g><g transform="translate(1010, 306)"><rect x="0" y="0" rx="2" ry="2" width="180" height="228" fill="#ffffff"/><g><g><g transform="translate( 0, 0 )"><svg xmlns="http://www.w3.org/2000/svg" width="180" height="185" viewBox="0 0 180 185">
  <g fill="none" fill-rule="evenodd">
    <path fill="#58A8F7" d="M0,2.99971296 C0,1.34301724 1.34537458,0 2.99263929,0 L177.007361,0 C178.66015,0 180,1.34382565 180,2.99971296 L180,185 L0,185 L0,2.99971296 Z" opacity=".097"/>
    <path fill="#58A8F7" d="M0,3.00947762 C0,1.34738902 1.34537458,0 2.99263929,0 L177.007361,0 C178.66015,0 180,1.33663106 180,3.00947762 L180,16 L0,16 L0,3.00947762 Z" opacity=".197"/>
    <path fill="#0D87FF" d="M2.5,5 C1.11928813,5 0,3.88071187 0,2.5 C0,1.11928813 1.11928813,0 2.5,0 C3.88071187,0 5,1.11928813 5,2.5 C5,3.88071187 3.88071187,5 2.5,5 Z M10.5,5 C9.11928813,5 8,3.88071187 8,2.5 C8,1.11928813 9.11928813,0 10.5,0 C11.8807119,0 13,1.11928813 13,2.5 C13,3.88071187 11.8807119,5 10.5,5 Z M18.5,5 C17.1192881,5 16,3.88071187 16,2.5 C16,1.11928813 17.1192881,0 18.5,0 C19.8807119,0 21,1.11928813 21,2.5 C21,3.88071187 19.8807119,5 18.5,5 Z" opacity=".499" transform="translate(5 6)"/>
    <path fill="#58A8F7" d="M3.8458278,-1.55376046e-16 L107.154172,1.55376046e-16 C108.49145,-9.02779573e-17 108.97638,0.139238417 109.465269,0.400699056 C109.954157,0.662159695 110.33784,1.04584256 110.599301,1.53473144 C110.860762,2.02362033 111,2.50854969 111,3.8458278 L111,81.1541722 C111,82.4914503 110.860762,82.9763797 110.599301,83.4652686 C110.33784,83.9541574 109.954157,84.3378403 109.465269,84.5993009 C108.97638,84.8607616 108.49145,85 107.154172,85 L3.8458278,85 C2.50854969,85 2.02362033,84.8607616 1.53473144,84.5993009 C1.04584256,84.3378403 0.662159695,83.9541574 0.400699056,83.4652686 C0.139238417,82.9763797 6.01853049e-17,82.4914503 -1.03584031e-16,81.1541722 L1.03584031e-16,3.8458278 C-6.01853049e-17,2.50854969 0.139238417,2.02362033 0.400699056,1.53473144 C0.662159695,1.04584256 1.04584256,0.662159695 1.53473144,0.400699056 C2.02362033,0.139238417 2.50854969,9.02779573e-17 3.8458278,-1.55376046e-16 Z" opacity=".197" transform="translate(35 54)"/>
    <g transform="translate(45 64)">
      <g transform="translate(0 6)">
        <rect width="91" height="11" fill="#58A8F7" opacity=".499" rx="2"/>
        <rect width="89" height="9" x="1" y="1" fill="#FFF" rx="1"/>
        <polygon fill="#58A8F7" points="0 0 53 0 53 3 0 3" opacity=".197" transform="translate(4 4)"/>
        <polygon fill="#0D87FF" points="2.5 3 0 0 5 0" transform="translate(81 4)"/>
      </g>
      <polygon fill="#58A8F7" points="0 0 32 0 32 3 0 3" opacity=".197"/>
    </g>
    <g transform="translate(45 91)">
      <g transform="translate(0 6)">
        <rect width="91" height="11" fill="#58A8F7" opacity=".499" rx="2"/>
        <rect width="89" height="9" x="1" y="1" fill="#FFF" rx="1"/>
      </g>
      <polygon fill="#58A8F7" points="0 0 20 0 20 3 0 3" opacity=".197"/>
    </g>
    <path fill="#0D87FF" d="M0,1.99201702 C0,0.891856397 0.900658965,0 2.00671997,0 L88.99328,0 C90.1015609,0 91,0.900176167 91,1.99201702 L91,9.00798298 C91,10.1081436 90.099341,11 88.99328,11 L2.00671997,11 C0.898439133,11 0,10.0998238 0,9.00798298 L0,1.99201702 Z" opacity=".499" transform="translate(45 118)"/>
    <polygon fill="#58A8F7" points="0 0 50 0 50 8 0 8" opacity=".499" transform="translate(65 36)"/>
  </g>
</svg></g></g></g><rect x="-1" y="-1" rx="3" ry="3" width="182" height="230" fill="none" stroke="#A2CEF9" stroke-width="2"/><g transform="translate(0,206)"><g><text x="90" y="4" text-anchor="middle" font-family="Roboto,sans-serif" font-size="14px" fill="#52565f">Connexion/Inscription</text></g></g></g><g transform="translate(410, 26)"><rect x="0" y="0" rx="2" ry="2" width="180" height="228" fill="#ffffff"/><g><g><g transform="translate( 0, 0 )"><svg xmlns="http://www.w3.org/2000/svg" xmlns:xlink="http://www.w3.org/1999/xlink" width="180" height="185" viewBox="0 0 180 185">
  <defs>
    <rect id="2c2v42nlrzp-main-a" width="160" height="82" rx="2"/>
  </defs>
  <g fill="none" fill-rule="evenodd">
    <path fill="#58A8F7" d="M0,2.99971296 C0,1.34301724 1.34537458,0 2.99263929,0 L177.007361,0 C178.66015,0 180,1.34382565 180,2.99971296 L180,185 L0,185 L0,2.99971296 Z" opacity=".097"/>
    <g transform="translate(10 26)">
      <rect width="160" height="82" fill="#58A8F7" opacity=".197" rx="2"/>
      <mask id="2c2v42nlrzp-main-b" fill="#fff">
        <use xlink:href="#2c2v42nlrzp-main-a"/>
      </mask>
      <use fill="#58A8F7" opacity="0" xlink:href="#2c2v42nlrzp-main-a"/>
      <path fill="#58A8F7" d="M123.544554,38 C147.292079,38 158.861386,56.7865169 182,82 C163.123762,82 82.3134379,82 59,82 C79.0940594,61.2359551 99.7970297,38 123.544554,38 Z" mask="url(#2c2v42nlrzp-main-b)" opacity=".197"/>
      <path fill="#0D87FF" d="M44.5,31 C69.8826643,31 86.3055556,55.3181901 109,82 C79.2231422,82 7.11330049,82 -20,82 C1.92139189,55.3181901 19.1173357,31 44.5,31 Z" mask="url(#2c2v42nlrzp-main-b)" opacity=".198"/>
      <circle cx="87" cy="22" r="9" fill="#58A8F7" mask="url(#2c2v42nlrzp-main-b)" opacity=".499"/>
    </g>
    <g transform="translate(26 118)">
      <circle cx="7.5" cy="7.5" r="7.5" fill="#0D87FF" opacity=".499"/>
      <polygon fill="#FFF" points="7.5 9.75 4.855 11.141 5.36 8.195 3.22 6.109 6.177 5.68 7.5 3 8.823 5.68 11.78 6.109 9.64 8.195 10.145 11.141"/>
    </g>
    <g transform="translate(140 118)">
      <circle cx="7.5" cy="7.5" r="7.5" fill="#0D87FF" opacity=".499"/>
      <polygon fill="#FFF" points="7.5 9.75 4.855 11.141 5.36 8.195 3.22 6.109 6.177 5.68 7.5 3 8.823 5.68 11.78 6.109 9.64 8.195 10.145 11.141"/>
    </g>
    <g transform="translate(83 118)">
      <circle cx="7.5" cy="7.5" r="7.5" fill="#0D87FF" opacity=".499"/>
      <polygon fill="#FFF" points="7.5 9.75 4.855 11.141 5.36 8.195 3.22 6.109 6.177 5.68 7.5 3 8.823 5.68 11.78 6.109 9.64 8.195 10.145 11.141"/>
    </g>
    <g fill="#58A8F7" transform="translate(10 139)">
      <polygon points="0 0 26 0 26 5 0 5" opacity=".499" transform="translate(10)"/>
      <polygon points="0 0 46 0 46 3 0 3" opacity=".197" transform="translate(0 17)"/>
      <polygon points="0 0 46 0 46 3 0 3" opacity=".197" transform="translate(0 10)"/>
      <polygon points="0 0 26 0 26 3 0 3" opacity=".197" transform="translate(10 24)"/>
    </g>
    <g fill="#58A8F7" transform="translate(124 139)">
      <polygon points="0 0 26 0 26 5 0 5" opacity=".499" transform="translate(10)"/>
      <polygon points="0 0 46 0 46 3 0 3" opacity=".197" transform="translate(0 17)"/>
      <polygon points="0 0 46 0 46 3 0 3" opacity=".197" transform="translate(0 10)"/>
      <polygon points="0 0 26 0 26 3 0 3" opacity=".197" transform="translate(10 24)"/>
    </g>
    <g fill="#58A8F7" transform="translate(67 139)">
      <polygon points="0 0 26 0 26 5 0 5" opacity=".499" transform="translate(10)"/>
      <polygon points="0 0 46 0 46 3 0 3" opacity=".197" transform="translate(0 17)"/>
      <polygon points="0 0 46 0 46 3 0 3" opacity=".197" transform="translate(0 10)"/>
      <polygon points="0 0 26 0 26 3 0 3" opacity=".197" transform="translate(10 24)"/>
    </g>
    <path fill="#58A8F7" d="M0,3.00947762 C0,1.34738902 1.34537458,0 2.99263929,0 L177.007361,0 C178.66015,0 180,1.33663106 180,3.00947762 L180,16 L0,16 L0,3.00947762 Z" opacity=".197"/>
    <path fill="#0D87FF" d="M2.5,5 C1.11928813,5 0,3.88071187 0,2.5 C0,1.11928813 1.11928813,0 2.5,0 C3.88071187,0 5,1.11928813 5,2.5 C5,3.88071187 3.88071187,5 2.5,5 Z M10.5,5 C9.11928813,5 8,3.88071187 8,2.5 C8,1.11928813 9.11928813,0 10.5,0 C11.8807119,0 13,1.11928813 13,2.5 C13,3.88071187 11.8807119,5 10.5,5 Z M18.5,5 C17.1192881,5 16,3.88071187 16,2.5 C16,1.11928813 17.1192881,0 18.5,0 C19.8807119,0 21,1.11928813 21,2.5 C21,3.88071187 19.8807119,5 18.5,5 Z" opacity=".499" transform="translate(5 6)"/>
  </g>
</svg></g></g></g><rect x="-1" y="-1" rx="3" ry="3" width="182" height="230" fill="none" stroke="#A2CEF9" stroke-width="2"/><g transform="translate(0,206)"><g><text x="90" y="4" text-anchor="middle" font-family="Roboto,sans-serif" font-size="14px" fill="#52565f">MySkeankers</text></g></g></g></g><g><g><g><path d="M 60,534L 60,560L 60,586" stroke="#4d9ef6" stroke-width="2" fill="none"/></g><g><g transform="translate( 50,524 )"><circle cx="10" cy="10" r="9" stroke-width="2" stroke="#A2CEF9" fill="#ffffff"/><path d="M10 7L13 12L7 12Z" fill="#58A8F7"/></g><g transform="translate( 54,580 )"><circle cx="6" cy="6" r="5" stroke-width="2" stroke="#A2CEF9" fill="#ffffff"/><path d="M6 8L4 5L8 5Z" fill="#58A8F7"/></g></g></g><g><g><path d="M 1060,814L 1060,840L 1060,866" stroke="#4d9ef6" stroke-width="2" fill="none"/><path d="M 1060,840L 1250,840Q1260,840 1260,850L 1260,866" stroke="#4d9ef6" stroke-width="2" fill="none"/></g><g><g transform="translate( 1050,804 )"><circle cx="10" cy="10" r="9" stroke-width="2" stroke="#A2CEF9" fill="#ffffff"/><path d="M10 7L13 12L7 12Z" fill="#58A8F7"/></g><g transform="translate( 1054,860 )"><circle cx="6" cy="6" r="5" stroke-width="2" stroke="#A2CEF9" fill="#ffffff"/><path d="M6 8L4 5L8 5Z" fill="#58A8F7"/></g><g transform="translate( 1254,860 )"><circle cx="6" cy="6" r="5" stroke-width="2" stroke="#A2CEF9" fill="#ffffff"/><path d="M6 8L4 5L8 5Z" fill="#58A8F7"/></g></g></g><g><g><path d="M 1060,534L 1060,560L 1060,586" stroke="#4d9ef6" stroke-width="2" fill="none"/><path d="M 1060,560L 1450,560Q1460,560 1460,570L 1460,586" stroke="#4d9ef6" stroke-width="2" fill="none"/></g><g><g transform="translate( 1050,524 )"><circle cx="10" cy="10" r="9" stroke-width="2" stroke="#A2CEF9" fill="#ffffff"/><path d="M10 7L13 12L7 12Z" fill="#58A8F7"/></g><g transform="translate( 1054,580 )"><circle cx="6" cy="6" r="5" stroke-width="2" stroke="#A2CEF9" fill="#ffffff"/><path d="M6 8L4 5L8 5Z" fill="#58A8F7"/></g><g transform="translate( 1454,580 )"><circle cx="6" cy="6" r="5" stroke-width="2" stroke="#A2CEF9" fill="#ffffff"/><path d="M6 8L4 5L8 5Z" fill="#58A8F7"/></g></g></g><g><g><path d="M 270,280L 70,280Q60,280 60,290L 60,306" stroke="#4d9ef6" stroke-width="2" fill="none"/><path d="M 470,280L 270,280Q260,280 260,290L 260,306" stroke="#4d9ef6" stroke-width="2" fill="none"/><path d="M 460,254L 460,280L 460,306" stroke="#4d9ef6" stroke-width="2" fill="none"/><path d="M 450,280L 650,280Q660,280 660,290L 660,306" stroke="#4d9ef6" stroke-width="2" fill="none"/><path d="M 650,280L 850,280Q860,280 860,290L 860,306" stroke="#4d9ef6" stroke-width="2" fill="none"/><path d="M 850,280L 1050,280Q1060,280 1060,290L 1060,306" stroke="#4d9ef6" stroke-width="2" fill="none"/></g><g><g transform="translate( 450,244 )"><circle cx="10" cy="10" r="9" stroke-width="2" stroke="#A2CEF9" fill="#ffffff"/><path d="M10 7L13 12L7 12Z" fill="#58A8F7"/></g><g transform="translate( 54,300 )"><circle cx="6" cy="6" r="5" stroke-width="2" stroke="#A2CEF9" fill="#ffffff"/><path d="M6 8L4 5L8 5Z" fill="#58A8F7"/></g><g transform="translate( 254,300 )"><circle cx="6" cy="6" r="5" stroke-width="2" stroke="#A2CEF9" fill="#ffffff"/><path d="M6 8L4 5L8 5Z" fill="#58A8F7"/></g><g transform="translate( 454,300 )"><circle cx="6" cy="6" r="5" stroke-width="2" stroke="#A2CEF9" fill="#ffffff"/><path d="M6 8L4 5L8 5Z" fill="#58A8F7"/></g><g transform="translate( 654,300 )"><circle cx="6" cy="6" r="5" stroke-width="2" stroke="#A2CEF9" fill="#ffffff"/><path d="M6 8L4 5L8 5Z" fill="#58A8F7"/></g><g transform="translate( 854,300 )"><circle cx="6" cy="6" r="5" stroke-width="2" stroke="#A2CEF9" fill="#ffffff"/><path d="M6 8L4 5L8 5Z" fill="#58A8F7"/></g><g transform="translate( 1054,300 )"><circle cx="6" cy="6" r="5" stroke-width="2" stroke="#A2CEF9" fill="#ffffff"/><path d="M6 8L4 5L8 5Z" fill="#58A8F7"/></g></g></g></g></g></g></svg>